<svg id="Layer_1" data-name="Layer 1" xmlns="http://www.w3.org/2000/svg" viewBox="0 0 500 500"><path d="M294.831,31.169C218-40.912,99.582,87.049,93.234,176.005l13.936-23.417L101.8,180.771c21.93,25.608,53.971,43.572,94.035,57.332l117.234,1.633c37.263-10.014,60-29.049,80.9-56.82l-9.442-27.887,14.593,24.409c-5.242-87.189-27.38-147.575-93.1-141.892C326.41,21.4,321.742,20.609,294.831,31.169Z" style="fill:#cd9054;fill-rule:evenodd"/><path d="M215.239,235.555s5.861,48.105-5.268,71-78.429,14.473-114.9,49.126S68.806,490,68.806,490H430.168s13.645-103.451-25.033-133.354c-41.618-32.18-99.265-26.281-111.652-50.672s-4.335-68.864-4.335-68.864Z" style="fill:#ffb69a;fill-rule:evenodd"/><path d="M215.645,284.569c19.775,26.271,52.449,24.968,72.024,1.011-3.137-22.974,1.478-48.472,1.478-48.472l-73.907-1.554S218.421,261.662,215.645,284.569Z" style="fill:#eb8e69;fill-rule:evenodd"/><path d="M177.7,171.467c-59.815-27.078-48.114,71.557,6.723,43.059Z" style="fill:#ffb69a;fill-rule:evenodd"/><path d="M148.393,179.664c20.211-1.352,25.146,18.352,24.281,28.911" style="fill:none;stroke:#000;stroke-linecap:round;stroke-linejoin:round;stroke-width:2.89715653916368px"/><path d="M330.426,171.467c59.815-27.078,48.114,71.557-6.723,43.059Z" style="fill:#ffb69a;fill-rule:evenodd"/><path d="M359.737,179.664c-20.212-1.352-25.146,18.352-24.282,28.911" style="fill:none;stroke:#000;stroke-linecap:round;stroke-linejoin:round;stroke-width:3.0457285240547px"/><path d="M185.288,88.459c-16.141,47.445-19.136,132.113-2.964,161.893,23.447,43.178,115.608,41.252,138.926,2.095,17.88-30.024,20.536-89.695,10.386-161.763C281.759,56.893,235.052,51.217,185.288,88.459Z" style="fill:#ffb69a;fill-rule:evenodd"/><path d="M223.414,224.286c15.263.42,34.117.707,55.265-3.442,18.131-3.558,17.522,34.584-23.241,38.283C216.82,262.631,201.476,223.679,223.414,224.286Z" style="fill:#a22222;fill-rule:evenodd"/><path d="M283.929,221.159c-3.739,8.16-17.293,13.023-30.973,13.782-13.454.744-27.032-2.48-31.546-10.476l2-.179c15.263.42,34.117.707,55.265-3.442A9.239,9.239,0,0,1,283.929,221.159Z" style="fill:#fff;fill-rule:evenodd"/><path d="M225.71,251.892c6.4-6.469,16.049-9.69,26.082-9.881,9.894-.188,20.161,2.57,28.065,8.181-5.516,4.506-13.537,7.948-24.421,8.935C242.909,260.265,232.83,256.933,225.71,251.892Z" style="fill:#e26161;fill-rule:evenodd"/><path d="M173.874,176c-.873-29.13,6.056-25.168,23.8-40.94,15.7-13.957,7.287-24.482,35.814-46.775-12.338,14-16.3,48.489-3.793,62.217-5.026-18.341,5.716-52.443,25.622-62.956-8.8,15.859-17.981,39.723.309,43.838s65.695,22.4,81.955,45.956c13.128-32.806,11.416-79.279-.2-96.291-24.1-35.29-125.659-44.891-163.6-4.241C157.7,94.036,149.134,137.514,173.874,176Z" style="fill:#cd9054;fill-rule:evenodd"/><path d="M238.307,192.175s-8.515,6.72-8.424,12.936c.057,3.789,4.48,8.136,10.012,9.606" style="fill:none;stroke:#000;stroke-linecap:round;stroke-linejoin:round;stroke-width:2.89715653916368px"/><ellipse cx="296.743" cy="176.049" rx="6.447" ry="9.683"/><ellipse cx="210.916" cy="174.45" rx="6.447" ry="9.683"/><path d="M287.245,136.181c12.969-2.968,22.009,1.982,27.3,14.492" style="fill:none;stroke:#000;stroke-linecap:round;stroke-linejoin:round;stroke-width:7.42860632902298px"/><path d="M223.4,136.533c-11.428-4.268-20.914-.688-28.548,10.382" style="fill:none;stroke:#000;stroke-linecap:round;stroke-linejoin:round;stroke-width:7.42860632902298px"/><path d="M405.14,356.642C443.814,386.549,430.175,490,430.175,490H389.867c7.652-26.164.594-97.285-9.984-97.285s12.2,59.964-25.941,97.285H148.393c-38.139-37.321-15.348-97.285-25.926-97.285s-17.636,71.121-10,97.285H68.8S58.611,390.338,95.07,355.676c22.42-21.29,56.473-26.312,81.982-32.344,10.846,64.822,134.027,65.089,145.764.772C346.425,331.221,378.947,336.391,405.14,356.642Z" style="fill:#3f99c6"/><path d="M94.547,356.21c15.348,3.711,30.558,8.4,46.144,10.771,25.264,3.839,50.741,5.174,76.272,5.437,51.048.525,102.932,1.05,153.448-7.226,12.1-1.981,24.059-4.594,35.941-7.552-.4-.337-.8-.677-1.217-1-1.268-.981-2.554-1.92-3.85-2.831-.144-.1-.286-.2-.43-.3q-1.932-1.346-3.9-2.6c-.094-.06-.189-.118-.284-.178a140.145,140.145,0,0,0-26.1-12.633,447.773,447.773,0,0,1-56.3,6.186c-26.461,36.948-101.213,37.131-128.149.549-11.9-.6-23.77-1.584-35.552-3.236-8.2-1.151-16.285-2.855-24.326-4.751a112.905,112.905,0,0,0-16.418,7.837l-.132.078q-1.939,1.144-3.821,2.382h0q-1.891,1.248-3.717,2.6l-.042.03q-1.765,1.311-3.459,2.727c-.1.08-.19.16-.284.24-1.121.944-2.222,1.919-3.292,2.936C94.9,355.854,94.724,356.036,94.547,356.21Z" style="fill:#1081b7"/><path d="M101.467,430.8q49.031,7.419,98.492,11.509,49.084,3.985,98.369,4.483c32.983.328,66.235.267,98.952-4.369a280.344,280.344,0,0,0,34.881-7.76,230.325,230.325,0,0,0-2.7-26.446c-6.6,1.786-13.226,3.5-19.92,4.97-30.7,6.734-62.548,6.84-93.836,6.926a1359.985,1359.985,0,0,1-189.932-12.607C108.6,405.129,90.824,402.944,73.5,399.2q-.747,3.17-1.381,6.395l-.014.071q-.623,3.163-1.143,6.36l-.032.193c-.7,4.319-1.275,8.66-1.735,12.964C79.859,427.409,90.656,429.164,101.467,430.8Z" style="fill:#1081b7"/><path d="M312.271,475.368c-62.389-.431-125,.315-187.292-3.584-19.217-1.2-38.369-3-57.417-5.563C67.83,480.439,68.806,490,68.806,490H430.168s1.03-7.821,1.721-19.772c-8.422,1.422-16.869,2.673-25.381,3.5C375.244,476.755,343.632,475.585,312.271,475.368Z" style="fill:#1081b7"/><path d="M379.883,392.715c10.578,0,17.636,71.121,9.984,97.285H383.4C387.059,456.66,385.35,424.331,379.883,392.715Z" style="fill:#1c86bc"/><path d="M379.883,392.715c5.467,31.616,7.176,63.945,3.521,97.285H353.942C392.081,452.679,369.305,392.715,379.883,392.715Z" style="fill:#1081b7"/><path d="M177.379,323.258c12.569,52.445,131.516,52.683,145.066.728.119.029.238.074.371.118-11.737,64.317-134.918,64.05-145.764-.772C177.156,323.3,177.275,323.287,177.379,323.258Z" style="fill:#ffa27f"/><path d="M148.393,490H118.931c-3.655-33.34-1.946-65.669,3.536-97.285C133.045,392.715,110.254,452.679,148.393,490Z" style="fill:#1081b7"/><path d="M118.931,490h-6.463c-7.637-26.164-.579-97.285,10-97.285C116.985,424.331,115.276,456.66,118.931,490Z" style="fill:#1c86bc"/><path d="M122.467,392.715c-5.482,31.616-7.191,63.945-3.536,97.285" style="fill:none;stroke:#000;stroke-miterlimit:10;stroke-width:1.4857212658046px"/><path d="M379.883,392.715c5.467,31.616,7.176,63.945,3.521,97.285" style="fill:none;stroke:#000;stroke-miterlimit:10;stroke-width:1.4857212658046px"/></svg>