<svg id="Layer_1" data-name="Layer 1" xmlns="http://www.w3.org/2000/svg" viewBox="0 0 500 500"><path d="M163.791,194.039c-4.342-17.318-6.739-31.923-5.428-50.044a73.406,73.406,0,0,1-21.5-2.578C134.926,69.677,158.078,24.11,234.9,22.279c-17.519-5.345-27.069-10.089-26.982-12.034,69.2-2.448,120.314,13.091,134.809,61.829,22.979,17.7,28.937,27.232,29.648,34.246,1.071,10.546-9.735,51.279-20.4,90.033C287.652,221.957,224.788,223.437,163.791,194.039Z" style="fill:#22273f;fill-rule:evenodd"/><path d="M215.291,235.941s5.853,48.032-5.26,70.9-78.31,14.45-114.723,49.051S69.079,490,69.079,490H429.9s13.624-103.3-25-133.153c-41.556-32.131-99.116-26.242-111.484-50.6s-4.329-68.76-4.329-68.76Z" style="fill:#ffb69a;fill-rule:evenodd"/><path d="M215.7,284.882c19.745,26.231,52.37,24.93,71.915,1.008-3.132-22.939,1.476-48.4,1.476-48.4l-73.8-1.552S218.468,262.009,215.7,284.882Z" style="fill:#eb8e69;fill-rule:evenodd"/><path d="M177.812,171.95c-59.725-27.038-48.041,71.449,6.713,42.994Z" style="fill:#ffb69a;fill-rule:evenodd"/><path d="M148.546,180.134c20.181-1.35,25.108,18.324,24.244,28.867" style="fill:none;stroke:#000;stroke-linecap:round;stroke-linejoin:round;stroke-width:2.89279953785246px"/><path d="M330.305,171.95c59.726-27.038,48.042,71.449-6.712,42.994Z" style="fill:#ffb69a;fill-rule:evenodd"/><path d="M359.572,180.134c-20.182-1.35-25.108,18.324-24.245,28.867" style="fill:none;stroke:#000;stroke-linecap:round;stroke-linejoin:round;stroke-width:3.04114808699736px"/><path d="M185.385,89.066c-16.117,47.374-14.314,123.991,1.832,153.726,23.412,43.113,105.6,41.563,128.882,2.464,17.853-29.978,25.549-82.008,15.414-153.968C281.711,57.548,235.074,51.881,185.385,89.066Z" style="fill:#ffb69a;fill-rule:evenodd"/><path d="M174.3,169.765l7.038-35.534C227.709,126.565,283.027,111.564,320.3,88c10.968,22.721,15.035,50.759,15.789,81.351,0,0,9.466-72.317,2.541-89.009C325.027,47.548,191.3,45.7,177.935,75.486,165.528,103.126,174.3,169.765,174.3,169.765Z" style="fill:#22273f;fill-rule:evenodd"/><path d="M239.784,178.2s-9.055,21.193-9.871,27.346,10.717,12.245,15.964,12.168" style="fill:none;stroke:#000;stroke-linecap:round;stroke-linejoin:round;stroke-width:2.89279953785246px"/><path d="M234.81,228.812c9.871,6.383,32.385,3.382,43.845-4.915" style="fill:none;stroke:#000;stroke-linecap:round;stroke-linejoin:round;stroke-width:2.89279953785246px"/><ellipse cx="294.267" cy="174.869" rx="6.437" ry="9.669"/><ellipse cx="214.497" cy="171.671" rx="6.437" ry="9.669"/><path d="M290.079,126.089c12.949-2.964,21.976,1.979,27.261,14.47" style="fill:none;stroke:#000;stroke-linecap:round;stroke-linejoin:round;stroke-width:7.41743453106228px"/><path d="M226.331,126.441c-11.411-4.262-20.883-.687-28.506,10.366" style="fill:none;stroke:#000;stroke-linecap:round;stroke-linejoin:round;stroke-width:7.41743453106228px"/><path d="M114.44,490H69.075S58.9,390.482,95.3,355.887c21.615-20.531,54.059-25.916,79.2-31.672a176.475,176.475,0,0,0,18.647,67.8c10.993-13.247,23.8-23.543,39.535-29.046,7.017,4.405,12.832,6.6,16.125,6.6,3.68,0,10.741-2.744,19.315-8.278v.015a119.427,119.427,0,0,1,35.753,30.708,143.617,143.617,0,0,0,25.145-65.837c22.845,6.305,52,12.224,75.88,30.679C443.522,386.7,429.9,490,429.9,490Z" style="fill:#29abe2"/><path d="M329.027,326.173a143.617,143.617,0,0,1-25.145,65.837A119.427,119.427,0,0,0,268.129,361.3v-.015c12.506-8.025,28.231-21.926,41.4-41.671A140.374,140.374,0,0,0,329.027,326.173Z" style="fill:#f2f2f2"/><path d="M191.863,319.512c12.506,21.259,28.513,35.737,40.826,43.452-15.74,5.5-28.542,15.8-39.535,29.046a176.475,176.475,0,0,1-18.647-67.8A176.829,176.829,0,0,0,191.863,319.512Z" style="fill:#f2f2f2"/><path d="M109.328,490c-3.814-23,6.274-100.682,17.5-81.77,7.245,12.207-4.361,48.5,19.767,81.77Z" style="fill:#009bdc"/><path d="M126.828,408.23A356.351,356.351,0,0,0,118.134,490" style="fill:none;stroke:#000;stroke-miterlimit:10;stroke-width:1.48348690621246px"/><path d="M390.669,490c3.815-23-6.273-100.682-17.5-81.77-7.246,12.207,4.36,48.5-19.767,81.77Z" style="fill:#009bdc"/><path d="M373.17,408.23A356.4,356.4,0,0,1,381.863,490" style="fill:none;stroke:#000;stroke-miterlimit:10;stroke-width:1.48348690621246px"/></svg>