<svg id="Layer_1" data-name="Layer 1" xmlns="http://www.w3.org/2000/svg" viewBox="0 0 500 500"><path d="M171.381,227.134a228.607,228.607,0,0,1-14.132-49.073c-17.047.8-24.069-18.583-10.365-28.233-20.222-5.5-24.623-32.952-2.191-42.633-17.335-21.895-2.515-50.561,24.5-47.744-6.542-24.539,20.261-47.351,48.041-29.4,9.862-27.11,46.51-26.221,59.983-.414,23.134-21.812,52.928-3.88,53.931,20.829,25.327-8.095,49.577,14.1,35.485,41.086,28.879,4.8,29.6,40.319,6.466,49.615,18.594,16.63,6.193,46.669-19.061,43.047a98.934,98.934,0,0,1-15.96,42C272.661,253.4,224,260.005,171.381,227.134Z" style="fill:#3b261e;fill-rule:evenodd"/><path d="M217.859,254.731s5.42,44.48-4.871,65.652S140.47,333.765,106.75,365.807s-24.289,123-24.289,123L416.593,490s12.617-95.656-23.147-123.3c-38.482-29.755-91.785-24.3-103.238-46.854s-4.009-63.674-4.009-63.674Z" style="fill:#964d31;fill-rule:evenodd"/><path d="M218.235,300.052c18.285,24.291,48.5,23.086,66.6.934-2.9-21.242,1.367-44.819,1.367-44.819L217.86,254.73S220.8,278.871,218.235,300.052Z" style="fill:#6e3722;fill-rule:evenodd"/><path d="M183.152,195.473c-55.308-25.039-44.488,66.164,6.216,39.814Z" style="fill:#964d31;fill-rule:evenodd"/><path d="M156.05,203.052c18.689-1.25,23.251,16.969,22.452,26.732" style="fill:none;stroke:#000;stroke-linecap:round;stroke-linejoin:round;stroke-width:2.67884918957255px"/><path d="M324.367,195.473c55.308-25.039,44.488,66.164-6.216,39.814Z" style="fill:#964d31;fill-rule:evenodd"/><path d="M351.469,203.052c-18.689-1.25-23.251,16.969-22.452,26.732" style="fill:none;stroke:#000;stroke-linecap:round;stroke-linejoin:round;stroke-width:2.81622593671697px"/><path d="M190.165,118.719c-14.925,43.87-13.256,114.821,1.7,142.357,21.681,39.924,97.789,38.488,119.351,2.281,16.532-27.761,23.659-75.943,14.273-142.58C279.366,89.532,236.179,84.284,190.165,118.719Z" style="fill:#964d31;fill-rule:evenodd"/><path d="M174.673,168.364c11.335-6.479,16.934-17.348,16.007-33.212,17.777,3.477,24.978-5.635,28.384-19.267,16.467,13.248,30.908,11.043,43.368-6.258,7.749,16.652,20.689,20.707,40.124,9.012,1.3,18.623,8.962,25.875,21.542,24.353-3.271,19.474,1.217,28.65,9.089,33.333,0,0,5.043-20.124.475-59.214C327.387,63.41,208.4,55.47,185.546,103.526,169.084,138.147,174.673,168.364,174.673,168.364Z" style="fill:#3b261e;fill-rule:evenodd"/><path d="M234.86,200.884s-3.243,16.508-4,22.207,13.123,11.522,17.982,11.45" style="fill:none;stroke:#000;stroke-linecap:round;stroke-linejoin:round;stroke-width:2.67884918957255px"/><path d="M235.935,248.129c9.141,5.912,29.989,3.132,40.6-4.551" style="fill:none;stroke:#000;stroke-linecap:round;stroke-linejoin:round;stroke-width:2.67884918957255px"/><ellipse cx="290.994" cy="192.586" rx="5.961" ry="8.954"/><ellipse cx="217.123" cy="191.428" rx="5.961" ry="8.954"/><path d="M287.935,156.265c11.992-2.745,20.351,1.832,25.244,13.4" style="fill:none;stroke:#000;stroke-linecap:round;stroke-linejoin:round;stroke-width:6.8688439078619px"/><path d="M224.565,155.578c-10.567-3.947-19.339-.636-26.4,9.6" style="fill:none;stroke:#000;stroke-linecap:round;stroke-linejoin:round;stroke-width:6.8688439078619px"/><path d="M393.447,366.7C429.206,394.339,416.6,490,416.6,490l-31.322-.11v-.027c7.968-51.187-2.486-120.04-11.938-120.04q-.886-8.14-1.978-16.211A110.246,110.246,0,0,1,393.447,366.7Z" style="fill:#964d31"/><path d="M373.335,369.818c9.452,0,19.906,68.853,11.938,120.04v.027l-8.174-.027A797.813,797.813,0,0,0,373.335,369.818Z" style="fill:#8d3e20"/><path d="M373.335,369.818a797.813,797.813,0,0,1,3.764,120.04l-28.423-.1v-.714C370.052,449.221,363.9,369.818,373.335,369.818Z" style="fill:#fa9d0c"/><path d="M371.357,353.607q1.092,8.077,1.978,16.211c-9.438,0-3.283,79.4-24.659,119.229v.714l-194.567-.714c-40.21-49.607-17.378-118.13-27.888-119.216h-.041q1.009-9.252,2.281-18.422a151.329,151.329,0,0,1,24.425-8.586c8.325,75.544,184.937,76.574,197.823,3.077A172.694,172.694,0,0,1,371.357,353.607Z" style="fill:#fbb03b"/><path d="M154.109,489.047l-31.707-.11a798.367,798.367,0,0,1,3.778-119.106h.041C136.731,370.917,113.9,439.44,154.109,489.047Z" style="fill:#fa9d0c"/><path d="M128.461,351.409q-1.257,9.169-2.281,18.422c-10.5-.906-19.164,69.266-16.636,119.065l-27.077-.1s-9.438-90.957,24.288-122.994A80.526,80.526,0,0,1,128.461,351.409Z" style="fill:#964d31"/><path d="M109.544,488.9c-2.528-49.8,6.141-119.971,16.636-119.065A798.367,798.367,0,0,0,122.4,488.937Z" style="fill:#8d3e20"/></svg>