<svg id="Layer_1" data-name="Layer 1" xmlns="http://www.w3.org/2000/svg" viewBox="0 0 500 500"><path d="M163.087,191.615c-23.66-85.717-11.126-147.423,62.547-171.4,30.861-10.043,103.244-.7,117.857,48.436,23.168,17.846,20.076,86.225,9.32,125.3C287.962,219.762,224.583,221.254,163.087,191.615Z" style="fill:#22273f;fill-rule:evenodd"/><path d="M215.008,233.861s5.9,48.425-5.3,71.476S130.753,319.906,94.043,354.79,67.6,488.7,67.6,488.7L431.371,490s13.736-104.141-25.2-134.244c-41.895-32.394-99.928-26.456-112.4-51.01s-4.364-69.322-4.364-69.322Z" style="fill:#ffb69a;fill-rule:evenodd"/><path d="M215.417,283.2c19.907,26.446,52.8,25.134,72.5,1.017-3.157-23.127,1.488-48.795,1.488-48.795l-74.4-1.564S218.211,260.142,215.417,283.2Z" style="fill:#eb8e69;fill-rule:evenodd"/><path d="M177.222,169.345c-60.214-27.259-48.435,72.035,6.768,43.347Z" style="fill:#ffb69a;fill-rule:evenodd"/><path d="M147.716,177.6c20.347-1.361,25.314,18.474,24.443,29.1" style="fill:none;stroke:#000;stroke-linecap:round;stroke-linejoin:round;stroke-width:2.9164867478941px"/><path d="M330.964,169.345c60.214-27.259,48.435,72.035-6.768,43.347Z" style="fill:#ffb69a;fill-rule:evenodd"/><path d="M360.47,177.6c-20.347-1.361-25.314,18.474-24.443,29.1" style="fill:none;stroke:#000;stroke-linecap:round;stroke-linejoin:round;stroke-width:3.06605002457093px"/><path d="M184.857,85.783c-16.249,47.761-14.431,125.006,1.847,154.985,23.6,43.466,106.464,41.9,129.938,2.484,18-30.224,25.758-82.68,15.539-155.229C281.972,54.007,234.953,48.293,184.857,85.783Z" style="fill:#ffb69a;fill-rule:evenodd"/><path d="M176.167,178.717c-2.252-23.024.337-50.678,4.513-62.686,5.287,6.405,12.246-.244,20.017-23.4-3.027,23.335,9.35,20.111,24.992-5.186-3.843,18.1,3.808,24.139,27.927-.878-5.727,16.686,7.231,15.888,30.8-.65,8.062,21.258,24.774,29.366,24.222,7.075,8.643,24.664,15.947,34.687,22.9,24.791,4.713,6.477,4.376,34.689,2.825,57.683,0,0,27.846-53.055,9.156-89.637-24.015-47.006-147.053-47.879-169.769-7.859C147.462,124.3,176.167,178.717,176.167,178.717Z" style="fill:#22273f;fill-rule:evenodd"/><path d="M239.7,175.644s-9.129,21.366-9.952,27.57,10.8,12.345,16.1,12.267" style="fill:none;stroke:#000;stroke-linecap:round;stroke-linejoin:round;stroke-width:2.9164867478941px"/><path d="M234.687,226.673c9.952,6.436,32.65,3.41,44.2-4.955" style="fill:none;stroke:#000;stroke-linecap:round;stroke-linejoin:round;stroke-width:2.9164867478941px"/><ellipse cx="294.63" cy="172.288" rx="6.49" ry="9.748"/><ellipse cx="214.207" cy="169.064" rx="6.49" ry="9.748"/><path d="M290.408,123.109c13.056-2.988,22.157,2,27.484,14.589" style="fill:none;stroke:#000;stroke-linecap:round;stroke-linejoin:round;stroke-width:4.41212094101036px"/><path d="M226.138,123.464c-11.5-4.3-21.054-.693-28.739,10.451" style="fill:none;stroke:#000;stroke-linecap:round;stroke-linejoin:round;stroke-width:4.41212094101036px"/><path d="M152.263,126.378c70.106-25.959,137.514-27.975,209.006-.02,0,0,9.138-113.221-101.509-116.294C144.137,6.852,152.263,126.378,152.263,126.378Z" style="fill:#29636f;fill-rule:evenodd"/><path d="M141.237,119.813c6.1-16.289,22.24-32.709,51.423-47.268,39.852-19.878,88.557-16.38,128.814,1.558,31.515,14.046,45.381,35.6,51.5,55.036,9.439,30-31.534-16.743-118.953-18.292C185.626,109.635,128.012,155.181,141.237,119.813Z" style="fill:#4e8f9b;fill-rule:evenodd"/><path d="M406.168,355.761c38.946,30.092,25.2,134.233,25.2,134.233H391.092c3.021-8.555-.15-119.351-16.168-113.069-9.183,3.589,8.555,71.925-14.358,113.069H137.043c-22.913-41.144-5.175-109.48-14.358-113.069-16.018-6.282-19.189,104.514-16.168,113.069H67.6S57.326,389.667,94.044,354.789c22.658-21.537,57.178-26.547,82.888-32.65,12.862,66.781,132.333,67.02,145.989.748C346.716,330.111,379.665,335.271,406.168,355.761Z" style="fill:#4e8f9b"/><path d="M374.924,376.925c16.018-6.282,19.189,104.514,16.168,113.069h-8.675C382.417,450.779,380.218,412.1,374.924,376.925Z" style="fill:#3a8290"/><path d="M382.417,489.994H360.566c22.913-41.144,5.175-109.48,14.358-113.069C380.218,412.1,382.417,450.779,382.417,489.994Z" style="fill:#3a8290"/><path d="M322.666,322.8c.075.029.165.059.255.089-13.656,66.272-133.127,66.033-145.989-.748.089-.015.164-.044.239-.059C191.05,381.546,307.949,381.785,322.666,322.8Z" style="fill:#ff9f7a"/><path d="M137.043,489.994H115.192c0-39.215,2.2-77.892,7.493-113.069C131.868,380.514,114.13,448.85,137.043,489.994Z" style="fill:#3a8290"/><path d="M106.517,489.994c-3.021-8.555.15-119.351,16.168-113.069-5.3,35.177-7.493,73.854-7.493,113.069Z" style="fill:#3a8290"/><path d="M122.685,376.925c-5.3,35.177-7.493,73.854-7.493,113.069" style="fill:none;stroke:#000;stroke-miterlimit:10;stroke-width:1.49563419311626px"/><path d="M374.924,376.925c5.294,35.177,7.493,73.854,7.493,113.069" style="fill:none;stroke:#000;stroke-miterlimit:10;stroke-width:1.49563419311626px"/></svg>