<svg id="Layer_1" data-name="Layer 1" xmlns="http://www.w3.org/2000/svg" viewBox="0 0 500 500"><path d="M108.191,407.9c-28.066-60.966,33.6-122.171,18.862-186.532S119.966,72.938,182.1,31.762c74.56-49.415,137.2.779,137.2.779s51.272,8,55.631,70.783c6.024,86.77,53.462,97.035,29.709,158.034-38.428,98.691,4.679,106.789-13.227,149.967S136.258,468.862,108.191,407.9Z" style="fill:#29636f;fill-rule:evenodd"/><path d="M401.272,288.291c18.962-22.111,39.558-59.2-1.876-110.038-32.614-40.019-5.2-77.938-42.5-118.891" style="fill:none;stroke:#29636f;stroke-linecap:round;stroke-linejoin:round;stroke-width:2.86564022284856px"/><path d="M104.575,331.483c-7.063-43.848,28.517-59.53,15.53-108.158-10.246-38.359-11.529-114.006,37.276-165.411" style="fill:none;stroke:#29636f;stroke-linecap:round;stroke-linejoin:round;stroke-width:2.86564022284856px"/><path d="M214.714,231.7s5.95,48.833-5.348,72.078S129.749,318.47,92.73,353.648,66.063,490,66.063,490H432.9s13.852-105.018-25.412-135.374c-42.248-32.667-100.769-26.679-113.343-51.44s-4.4-69.906-4.4-69.906Z" style="fill:#ffb69a;fill-rule:evenodd"/><path d="M215.126,281.457c20.075,26.668,53.244,25.346,73.115,1.025-3.184-23.321,1.5-49.206,1.5-49.206L214.715,231.7S217.944,258.2,215.126,281.457Z" style="fill:#eb8e69;fill-rule:evenodd"/><path d="M176.609,166.641c-60.721-27.489-48.842,72.641,6.825,43.712Z" style="fill:#ffb69a;fill-rule:evenodd"/><path d="M146.855,174.962c20.518-1.372,25.527,18.63,24.649,29.349" style="fill:none;stroke:#000;stroke-linecap:round;stroke-linejoin:round;stroke-width:2.94105191648381px"/><path d="M331.646,166.641c60.722-27.489,48.843,72.641-6.824,43.712Z" style="fill:#ffb69a;fill-rule:evenodd"/><path d="M361.4,174.962c-20.518-1.372-25.527,18.63-24.649,29.349" style="fill:none;stroke:#000;stroke-linecap:round;stroke-linejoin:round;stroke-width:3.0918749441638px"/><path d="M184.309,82.375c-16.386,48.164-14.553,126.059,1.862,156.29,23.8,43.832,107.361,42.256,131.033,2.5,18.15-30.478,25.974-83.376,15.67-156.536C282.241,50.331,234.827,44.569,184.309,82.375Z" style="fill:#ffb69a;fill-rule:evenodd"/><path d="M172.272,180.042c14.222-73.748,75.01-64.038,92.581-93.631-18.309,48.551,11.444,26.3,19.225,3.1-3.953,33.439,10.659,17.656,18.859,3.258,25.64,21.112,32.914,55.165,32.1,87.592C351.344,147.37,378.118,66.393,294.429,43,189.734,13.725,143.933,93.579,172.272,180.042Z" style="fill:#29636f;fill-rule:evenodd"/><path d="M258.279,194.554s-7.889-7.869-12.618-4.979a10.189,10.189,0,0,0-5.205,8.474" style="fill:none;stroke:#000;stroke-linecap:round;stroke-linejoin:round;stroke-width:2.94105191648381px"/><path d="M234.559,224.452c10.035,6.49,32.924,3.438,44.575-5" style="fill:none;stroke:#000;stroke-linecap:round;stroke-linejoin:round;stroke-width:2.94105191648381px"/><ellipse cx="295.007" cy="169.609" rx="6.545" ry="9.83"/><ellipse cx="213.906" cy="169.44" rx="6.545" ry="9.83"/><path d="M290.749,120.016c13.166-3.014,22.343,2.012,27.716,14.711" style="fill:none;stroke:#000;stroke-linecap:round;stroke-linejoin:round;stroke-width:7.54115857580951px"/><path d="M225.937,120.373c-11.6-4.333-21.231-.7-28.98,10.54" style="fill:none;stroke:#000;stroke-linecap:round;stroke-linejoin:round;stroke-width:7.54115857580951px"/><path d="M407.491,354.621C446.75,384.982,432.905,490,432.905,490H390.026c7.752-26.56.6-98.759-10.151-98.759-10.738,0,12.4,60.872-26.319,98.759H144.893c-38.717-37.887-15.595-98.759-26.334-98.759S100.671,463.44,108.424,490H66.057S55.711,388.828,92.723,353.641c11.327-10.754,25.58-17.42,40.24-22.156,13.061,50.873,215.239,51.808,235.238,2.79C381.655,338.936,395.259,345.165,407.491,354.621Z" style="fill:#29abe2"/><path d="M379.875,391.241c10.754,0,17.9,72.2,10.151,98.759h-6.561C387.175,456.155,385.441,423.336,379.875,391.241Z" style="fill:#009bdc"/><path d="M379.875,391.241c5.566,32.1,7.3,64.914,3.59,98.759H353.556C392.273,452.113,369.137,391.241,379.875,391.241Z" style="fill:#009bdc"/><path d="M133.2,331.409c14.931,42.261,211.846,43.166,234.47,2.685.181.06.346.121.527.181-20,49.018-222.177,48.083-235.238-2.79A1.562,1.562,0,0,1,133.2,331.409Z" style="fill:#ffa27f"/><path d="M144.893,490H114.984c-3.71-33.845-1.975-66.664,3.575-98.759C129.3,391.241,106.176,452.113,144.893,490Z" style="fill:#009bdc"/><path d="M114.984,490h-6.56c-7.753-26.56-.6-98.759,10.135-98.759C113.009,423.336,111.274,456.155,114.984,490Z" style="fill:#009bdc"/><path d="M118.559,391.241c-5.55,32.1-7.285,64.914-3.575,98.759" style="fill:none;stroke:#000;stroke-miterlimit:10;stroke-width:1.5082317151619px"/><path d="M379.875,391.241c5.566,32.1,7.3,64.914,3.59,98.759" style="fill:none;stroke:#000;stroke-miterlimit:10;stroke-width:1.5082317151619px"/></svg>