<svg id="Layer_1" data-name="Layer 1" xmlns="http://www.w3.org/2000/svg" viewBox="0 0 500 500"><path d="M312.415,37.94c-42.88-54.651-127.309-18.7-155.607,19.267-56.862,76.291-17.1,262.01-17.1,262.01s66.19-58.869,138.41-53.378c85.6,6.507,90.242-15.275,90.242-15.275S404.1,123.29,361.742,60.4C347.235,38.858,333.18,32.769,312.415,37.94Z" style="fill:#7c371b;fill-rule:evenodd"/><path d="M215.373,233.234s5.839,47.921-5.248,70.732S132,318.383,95.668,352.9,69.5,490,69.5,490H429.482s13.593-106.348-24.937-136.137c-41.459-32.057-98.887-26.181-111.226-50.479s-4.319-68.6-4.319-68.6Z" style="fill:#ffb69a;fill-rule:evenodd"/><path d="M215.778,282.061c19.7,26.171,52.249,24.873,71.749,1.007C284.4,260.182,289,234.781,289,234.781l-73.625-1.548S218.543,259.242,215.778,282.061Z" style="fill:#eb8e69;fill-rule:evenodd"/><path d="M177.981,169.391c-59.587-26.975-47.93,71.284,6.7,42.9Z" style="fill:#ffb69a;fill-rule:evenodd"/><path d="M148.782,177.556c20.135-1.346,25.05,18.282,24.189,28.8" style="fill:none;stroke:#000;stroke-linecap:round;stroke-linejoin:round;stroke-width:2.88610252302294px"/><path d="M330.121,169.391c59.587-26.975,47.93,71.284-6.7,42.9Z" style="fill:#ffb69a;fill-rule:evenodd"/><path d="M359.32,177.556c-20.135-1.346-25.05,18.282-24.189,28.8" style="fill:none;stroke:#000;stroke-linecap:round;stroke-linejoin:round;stroke-width:3.03410763584583px"/><path d="M185.536,86.7c-16.079,47.264-14.281,123.7,1.828,153.37,23.358,43.014,105.355,41.467,128.584,2.459,17.811-29.909,25.49-81.819,15.378-153.612C281.639,55.254,235.111,49.6,185.536,86.7Z" style="fill:#ffb69a;fill-rule:evenodd"/><path d="M172.82,165.38c22.334-11.487,53.681-6.19,72.611-24.97,9.413-9.348,6.764-41.171,14.386-54.364,20.41,40.443,26.138,28.913,21.757,3.555,14.194,24.689,28.343,26.726,26.064,9.557,21.386,14.426,30.474,41.026,29.986,62.048,0,0,20.765-72.284,3.256-89.435s-139.229-24.532-156.368-4.4S172.82,165.38,172.82,165.38Z" style="fill:#7c371b;fill-rule:evenodd"/><path d="M242.39,199.7s1.637-6.454,7.583-7.771c5.5-1.216,11.365,6.472,11.365,6.472" style="fill:none;stroke:#000;stroke-linecap:round;stroke-linejoin:round;stroke-width:3.06370865841042px"/><path d="M231.371,221.139c11.722.351,26.2.59,42.444-2.874,13.924-2.971,13.456,28.88-17.85,31.969C226.307,253.16,214.522,220.633,231.371,221.139Z" style="fill:#a22222;fill-rule:evenodd"/><path d="M277.846,218.528c-2.871,6.814-13.28,10.875-23.787,11.509-10.332.622-20.761-2.071-24.227-8.749l1.539-.149c11.722.351,26.2.59,42.444-2.874A6.55,6.55,0,0,1,277.846,218.528Z" style="fill:#fff;fill-rule:evenodd"/><path d="M233.134,244.192c4.915-5.4,12.326-8.091,20.031-8.251a34.508,34.508,0,0,1,21.554,6.832c-4.236,3.762-10.4,6.636-18.755,7.461C246.344,251.184,238.6,248.4,233.134,244.192Z" style="fill:#e26161;fill-rule:evenodd"/><ellipse cx="294.166" cy="172.303" rx="6.422" ry="9.646"/><ellipse cx="214.58" cy="169.113" rx="6.422" ry="9.646"/><path d="M289.988,123.637c12.919-2.957,21.925,1.974,27.2,14.436" style="fill:none;stroke:#000;stroke-linecap:round;stroke-linejoin:round;stroke-width:4.36615506274013px"/><path d="M226.387,123.987c-11.384-4.252-20.835-.685-28.439,10.343" style="fill:none;stroke:#000;stroke-linecap:round;stroke-linejoin:round;stroke-width:4.36615506274013px"/><path d="M404.551,353.865C443.077,383.643,429.476,490,429.476,490H387.871c7.623-26.064.592-96.914-9.946-96.914S390.077,452.821,352.084,490H147.318c-37.993-37.179-15.289-96.914-25.827-96.914s-17.568,70.85-9.96,96.914H69.5S59.344,387.418,95.665,352.9c16.206-15.393,38.525-22.26,59.261-27.159,16.3,62.132,169.185,62.458,186.945,1.006C362.074,332.123,385.074,338.8,404.551,353.865Z" style="fill:#fbb03b"/><path d="M377.925,393.086c10.538,0,17.569,70.85,9.946,96.914h-6.438C385.074,456.788,383.372,424.582,377.925,393.086Z" style="fill:#fa9d0c"/><path d="M377.925,393.086c5.447,31.5,7.149,63.7,3.508,96.914H352.084C390.077,452.821,367.387,393.086,377.925,393.086Z" style="fill:#fa9d0c"/><path d="M155.5,325.611c18.752,49.877,165.292,50.2,185.687.962a5.689,5.689,0,0,1,.681.177c-17.76,61.452-170.65,61.126-186.945-1.006Z" style="fill:#ffa27f"/><path d="M147.318,490H117.969c-3.641-33.212-1.939-65.418,3.522-96.914C132.029,393.086,109.325,452.821,147.318,490Z" style="fill:#fa9d0c"/><path d="M180.436,425.633a25.511,25.511,0,1,1,25.51-25.511A25.511,25.511,0,0,1,180.436,425.633Zm149.609,7.749a25.51,25.51,0,1,1,25.511-25.51A25.51,25.51,0,0,1,330.045,433.382Z" style="fill:none"/><path d="M106.169,374.612a25.478,25.478,0,0,0,20.614-40.5c-11.37,4.4-22.174,10.291-31.115,18.787a56.66,56.66,0,0,0-9.453,12.065A25.446,25.446,0,0,0,106.169,374.612Z" style="fill:#8d84fb"/><path d="M80.659,441.543a25.45,25.45,0,0,0-10.493-20.589,343.675,343.675,0,0,0-1.939,42.462A25.472,25.472,0,0,0,80.659,441.543Z" style="fill:#8d84fb"/><circle cx="180.436" cy="400.122" r="25.51" transform="translate(-254.789 343.254) rotate(-58.283)" style="fill:#8d84fb"/><path d="M288.132,467.053A25.51,25.51,0,1,0,251.524,490h22.195A25.488,25.488,0,0,0,288.132,467.053Z" style="fill:#8d84fb"/><circle cx="330.045" cy="407.872" r="25.51" style="fill:#8d84fb"/><path d="M416.588,393.086a25.419,25.419,0,0,0,9.118-1.707c-4.092-15.707-10.7-29.435-21.161-37.519-1.97-1.523-3.985-2.935-6.021-4.3a25.509,25.509,0,0,0,18.064,43.521Z" style="fill:#8d84fb"/><path d="M398.437,455.655A25.454,25.454,0,0,0,374.529,490h47.816a25.452,25.452,0,0,0-23.908-34.342Z" style="fill:#8d84fb"/><path d="M160.923,464.486A25.511,25.511,0,0,0,135.412,490h51.021A25.511,25.511,0,0,0,160.923,464.486Z" style="fill:#8d84fb"/><path d="M117.969,490h-6.438c-7.608-26.064-.578-96.914,9.96-96.914C116.03,424.582,114.328,456.788,117.969,490Z" style="fill:#fa9d0c"/><path d="M121.491,393.086c-5.461,31.5-7.163,63.7-3.522,96.914" style="fill:none;stroke:#000;stroke-miterlimit:10;stroke-width:1.48005253971719px"/><path d="M377.925,393.086c5.447,31.5,7.149,63.7,3.508,96.914" style="fill:none;stroke:#000;stroke-miterlimit:10;stroke-width:1.48005253971719px"/></svg>