<svg id="Layer_1" data-name="Layer 1" xmlns="http://www.w3.org/2000/svg" viewBox="0 0 500 500"><path d="M342.182,56.182C230.4-62.707,154.452,86.1,112.423,80.912c2.877,16.639,12.8,36.377,29.537,46.219-1.639,37.324-15.214,82.143-29.305,113.163l13.389-13.941-4.876,16.637c77.867,38.249,176.043,41.543,259.515-1.49L372.9,222.3l14.111,15.138C372.261,195.417,392.554,86.862,342.182,56.182Z" style="fill-rule:evenodd"/><path d="M214.741,231.9s5.945,48.8-5.344,72.022S129.842,318.6,92.851,353.753,66.205,490,66.205,490H432.757S446.6,385.06,407.365,354.727c-42.216-32.641-100.692-26.658-113.256-51.4s-4.4-69.852-4.4-69.852Z" style="fill:#ffb69a;fill-rule:evenodd"/><path d="M215.153,281.618c20.059,26.648,53.2,25.327,73.058,1.025-3.181-23.3,1.5-49.168,1.5-49.168L214.742,231.9S217.968,258.382,215.153,281.618Z" style="fill:#eb8e69;fill-rule:evenodd"/><path d="M180.82,166.892c-60.675-27.468-48.805,72.584,6.819,43.677Z" style="fill:#ffb69a;fill-rule:evenodd"/><path d="M151.088,175.206c20.5-1.371,25.507,18.615,24.63,29.326" style="fill:none;stroke:#000;stroke-linecap:round;stroke-linejoin:round;stroke-width:2.93877274960885px"/><path d="M327.5,166.892c60.674-27.468,48.8,72.584-6.82,43.677Z" style="fill:#ffb69a;fill-rule:evenodd"/><path d="M357.23,175.206c-20.5-1.371-25.507,18.615-24.63,29.326" style="fill:none;stroke:#000;stroke-linecap:round;stroke-linejoin:round;stroke-width:3.0894788970506px"/><path d="M184.359,82.691c-16.372,48.126-7.454,118.4,9.626,148.228,29.808,52.062,84.346,57.724,116.409,3.444,18.025-30.52,32.712-76.312,22.416-149.415C282.216,50.672,234.838,44.915,184.359,82.691Z" style="fill:#ffb69a;fill-rule:evenodd"/><path d="M166.921,129.2c60.491,7.086,112.212-52.782,160.328-27.643,9.925,15.154,11.045,43.4,8.254,61.322,0,0,24.452-58.519-.739-94.985C297.773,14.341,163.315,10.284,166.921,129.2Z" style="fill-rule:evenodd"/><path d="M243.12,189.914s-5.464,7.782-5.921,14.071c-.221,3.066,4.471,7.062,10.146,9.089" style="fill:none;stroke:#000;stroke-linecap:round;stroke-linejoin:round;stroke-width:2.93877274960885px"/><path d="M272.48,219.647c-10.745,1.365-24.034,2.877-39.266,1.233-13.059-1.409-9.85,27.048,19.2,27C279.93,247.844,287.924,217.683,272.48,219.647Z" style="fill:#a22222;fill-rule:evenodd"/><path d="M229.531,221.477c3.234,5.84,13.157,8.541,22.87,8.166,9.552-.37,18.9-3.714,21.507-10l-1.428,0c-10.745,1.365-24.034,2.877-39.266,1.233A6.221,6.221,0,0,0,229.531,221.477Z" style="fill:#fff;fill-rule:evenodd"/><path d="M272.871,240.432c-4.989-4.393-12.036-6.135-19.133-5.587a32.474,32.474,0,0,0-19.217,8.046c4.222,2.986,10.136,5.006,17.892,4.994C261.339,247.873,268.212,244.689,272.871,240.432Z" style="fill:#e26161;fill-rule:evenodd"/><ellipse cx="294.972" cy="171.967" rx="13.151" ry="6.54" transform="translate(-34.414 82.045) rotate(-14.972)"/><ellipse cx="213.355" cy="170.127" rx="6.54" ry="13.151" transform="translate(-17.442 315.718) rotate(-70.813)"/><path d="M288.833,131.875c13.155-3.011,22.326,2.01,27.694,14.7" style="fill:none;stroke:#000;stroke-linecap:round;stroke-linejoin:round;stroke-width:4.44583566127371px"/><path d="M224.072,132.232c-11.593-4.33-21.215-.7-28.959,10.531" style="fill:none;stroke:#000;stroke-linecap:round;stroke-linejoin:round;stroke-width:4.44583566127371px"/><path d="M407.362,354.726C446.591,385.063,432.756,490,432.756,490H393.769c7.746-26.539.588-98.682-10.143-98.682S396,452.143,357.328,490H148.811c-38.671-37.857-15.568-98.682-26.3-98.682S104.624,463.461,112.37,490H66.209S55.855,388.906,92.854,353.746c20.179-19.169,49.657-25.348,74.132-30.759,2.728,64.488,24.218,93.936,84.727,50.638,58.791,47.231,79.558,16.05,84.094-48.573C358.051,330.975,385,337.425,407.362,354.726Z" style="fill:#ff7bac"/><path d="M383.626,391.318c10.731,0,17.889,72.143,10.143,98.682H387.2C390.92,456.182,389.187,423.388,383.626,391.318Z" style="fill:#ff6ca3"/><path d="M383.626,391.318c5.561,32.07,7.294,64.864,3.572,98.682h-29.87C396,452.143,372.9,391.318,383.626,391.318Z" style="fill:#ff6ca3"/><path d="M323.088,321.48c4.008,1.221,8.258,2.381,12.719,3.572-4.536,64.623-25.3,95.8-84.094,48.573l.121-3.18h.045C265.744,370.445,310.187,342.308,323.088,321.48Z" style="fill:#f2f2f2"/><path d="M322.078,321.164c.331.105.663.211,1.01.316-12.9,20.828-57.344,48.965-71.209,48.965h-.045c-14.152-.061-59.755-30.383-71.767-50.5.287-.06.573-.136.859-.211,13.217,16.894,57.178,41.218,70.953,41.218C265.412,360.95,308.017,338.48,322.078,321.164Z" style="fill:#ffa27f"/><path d="M251.834,370.445l-.121,3.18c-60.509,43.3-82,13.85-84.727-50.638,4.566-1.009,8.967-2,13.081-3.044C192.079,340.062,237.682,370.384,251.834,370.445Z" style="fill:#f2f2f2"/><path d="M148.811,490h-29.87c-3.708-33.818-1.974-66.612,3.572-98.682C133.243,391.318,110.14,452.143,148.811,490Z" style="fill:#ff6ca3"/><path d="M118.941,490H112.37c-7.746-26.539-.588-98.682,10.143-98.682C116.967,423.388,115.233,456.182,118.941,490Z" style="fill:#ff6ca3"/><path d="M122.513,391.318c-5.546,32.07-7.28,64.864-3.572,98.682" style="fill:none;stroke:#000;stroke-miterlimit:10;stroke-width:1.50706291166486px"/><path d="M383.626,391.318c5.561,32.07,7.294,64.864,3.572,98.682" style="fill:none;stroke:#000;stroke-miterlimit:10;stroke-width:1.50706291166486px"/></svg>