<svg id="Layer_1" data-name="Layer 1" xmlns="http://www.w3.org/2000/svg" viewBox="0 0 500 500"><path d="M312.826,44.6C299.656,26.948,268.367,6.925,237.91,10.4c-36.6,4.173-43.6,35.366-67.665,47.321-31.607,15.7-41.175,24.686-50.826,50.351-10.394,27.644,9.36,53.243.106,105.149-5.513,30.917-12.031,54.832,19.677,83.243,29.252,26.212,89.869,6.71,117.458,6.921s101.21,17.748,126.919-13.889,15.5-79.062,6.833-112.835,5.116-64.118-10.589-91.945C367.537,62.94,344.4,46.342,312.826,44.6Z" style="fill:#ff527e;fill-rule:evenodd"/><path d="M115.06,163.9C104.646,146.935,103.9,96.932,150.63,70.9" style="fill:none;stroke:#ff527e;stroke-linecap:round;stroke-linejoin:round;stroke-width:2.8493885568699px"/><path d="M173.656,317.758c-48.7-8.053-69.776-42.221-54.17-89.069" style="fill:none;stroke:#ff527e;stroke-linecap:round;stroke-linejoin:round;stroke-width:2.8493885568699px"/><path d="M361.593,308.94c72.713-14.056,39.551-89.5,22.484-143.8" style="fill:none;stroke:#ff527e;stroke-linecap:round;stroke-linejoin:round;stroke-width:2.8493885568699px"/><path d="M312.877,47.8c42.372-7.288,66.559,17.562,79.974,54.781" style="fill:none;stroke:#ff527e;stroke-linecap:round;stroke-linejoin:round;stroke-width:2.8493885568699px"/><path d="M216.668,246.01s5.62,46.128-5.052,68.086S136.409,327.974,101.44,361.2,76.25,488.762,76.25,488.762L422.769,490s13.084-99.2-24-127.876c-39.909-30.858-95.188-25.2-107.066-48.591s-4.157-66.034-4.157-66.034Z" style="fill:#ffb69a;fill-rule:evenodd"/><path d="M217.058,293.011c18.962,25.191,50.294,23.942,69.065.969-3.008-22.03,1.417-46.481,1.417-46.481l-70.871-1.49S219.719,271.045,217.058,293.011Z" style="fill:#eb8e69;fill-rule:evenodd"/><path d="M180.674,184.555c-57.358-25.967-46.137,68.617,6.447,41.29Z" style="fill:#ffb69a;fill-rule:evenodd"/><path d="M152.567,192.415c19.382-1.3,24.113,17.6,23.284,27.723" style="fill:none;stroke:#000;stroke-linecap:round;stroke-linejoin:round;stroke-width:2.77815391088288px"/><path d="M327.124,184.555c57.358-25.967,46.137,68.617-6.447,41.29Z" style="fill:#ffb69a;fill-rule:evenodd"/><path d="M355.23,192.415c-19.381-1.3-24.113,17.6-23.284,27.723" style="fill:none;stroke:#000;stroke-linecap:round;stroke-linejoin:round;stroke-width:2.92062320285693px"/><path d="M187.947,104.955c-15.478,45.5-13.747,119.078,1.759,147.634,22.485,41.405,101.414,39.916,123.775,2.367,17.145-28.79,24.536-78.759,14.8-147.866C280.455,74.686,235.667,69.244,187.947,104.955Z" style="fill:#ffb69a;fill-rule:evenodd"/><path d="M291.193,92.263c1.554,33.331,22.376,49.93,32.455,66.526,16.233,26.73-2.851,56.808-2.851,56.808,46.509-3.525,57.394-77.536,20.43-125.256-35.652-46.026-119.929-45.412-167.671,0-28.519,27.126-35.6,96.387,13.235,127.391C167.89,123.5,268.15,128.112,291.193,92.263Z" style="fill:#ff527e;fill-rule:evenodd"/><path d="M242.674,213.726s1.576-6.212,7.3-7.48c5.291-1.171,10.941,6.229,10.941,6.229" style="fill:none;stroke:#000;stroke-linecap:round;stroke-linejoin:round;stroke-width:2.94911706125175px"/><path d="M232.068,234.367c11.283.338,25.221.568,40.856-2.767,13.4-2.859,12.953,27.8-17.182,30.774C227.192,265.19,215.849,233.88,232.068,234.367Z" style="fill:#a22222;fill-rule:evenodd"/><path d="M276.8,231.854c-2.763,6.559-12.783,10.468-22.9,11.078-9.946.6-19.984-1.993-23.321-8.421l1.482-.144c11.283.338,25.221.568,40.856-2.767A6.305,6.305,0,0,1,276.8,231.854Z" style="fill:#fff;fill-rule:evenodd"/><path d="M233.764,256.558c4.732-5.2,11.865-7.789,19.282-7.943a33.217,33.217,0,0,1,20.748,6.577c-4.077,3.621-10.007,6.388-18.054,7.182C246.48,263.288,239.029,260.61,233.764,256.558Z" style="fill:#e26161;fill-rule:evenodd"/><ellipse cx="292.514" cy="187.358" rx="6.182" ry="9.286"/><ellipse cx="215.905" cy="184.287" rx="6.182" ry="9.286"/><path d="M288.492,140.512c12.436-2.847,21.1,1.9,26.18,13.9" style="fill:none;stroke:#000;stroke-linecap:round;stroke-linejoin:round;stroke-width:4.20284818931783px"/><path d="M227.27,140.849c-10.959-4.093-20.056-.659-27.376,9.956" style="fill:none;stroke:#000;stroke-linecap:round;stroke-linejoin:round;stroke-width:4.20284818931783px"/><path d="M156.263,335.586c63.157,67.075,125.843,68.77,188.06,2.023,17.922,4.944,37.569,11.469,54.437,24.519C435.859,390.793,422.766,490,422.766,490L121.6,488.912l-45.348-.157S66.465,394.426,101.441,361.2C116.457,346.927,136.93,340.288,156.263,335.586Z" style="fill:#8cc63f"/><path d="M113.143,488.912c-3.663-22.086,6.025-96.692,16.806-78.529,6.958,11.723-4.188,46.58,18.984,78.529Z" style="fill:#77bc1c"/><path d="M129.949,410.383a342.291,342.291,0,0,0-8.349,78.529" style="fill:none;stroke:#000;stroke-miterlimit:10;stroke-width:1.42469427843495px"/><path d="M383.334,488.912c3.664-22.086-6.025-96.692-16.806-78.529-6.958,11.723,4.188,46.58-18.983,78.529Z" style="fill:#77bc1c"/><path d="M366.528,410.383a342.18,342.18,0,0,1,8.349,78.529" style="fill:none;stroke:#000;stroke-miterlimit:10;stroke-width:1.42469427843495px"/><path d="M404.8,457.485c-.082-4.376-.144-8.749-.223-13.114-.149-8.179-.382-16.357-.906-24.519q9.767-.258,19.53-.574-.35-2.843-.783-5.668-9.581.309-19.163.564c-.166-2-.345-4.006-.557-6.006-1.289-12.192-3.311-24.3-5.74-36.325l-.006-.028c3.612-.02,7.224-.064,10.836-.089-.023-.033-.048-.065-.072-.1q-.984-1.389-2.044-2.682c-.066-.081-.13-.164-.2-.245q-1.107-1.337-2.292-2.572l-.063-.065c-2.457.016-4.913.047-7.369.06q-.78-3.673-1.6-7.337l-.308-.211q-1.323-.9-2.663-1.762-.577-.369-1.156-.731c-.646-.4-1.3-.8-1.949-1.186-.3-.179-.606-.355-.909-.531.9,3.92,1.79,7.843,2.636,11.774q-15.749.067-31.5.064c-.312-1.946-.639-3.889-1-5.827-1.271-6.821-2.973-13.519-4.906-20.188-.027-.092-.053-.185-.08-.277l-.088-.027q-3.149-.946-6.245-1.81l-.449-.126c1.582,6.011,3.6,11.965,4.892,17.9.749,3.43,1.391,6.878,1.963,10.336q-18.786-.033-37.571-.181-.029-.927-.055-1.854-5.652,4.094-11.309,7.449c1.888.018,3.777.045,5.665.061l.885,29.924.4,13.683q-9.247-.026-18.5-.106-15.043-.13-30.084-.416.31-14.281.462-28.565-2.951.346-5.9.5-.168,13.984-.456,27.967-25.938-.519-51.865-1.468c.423-12.838.876-25.678,1.531-38.5q-2.849-1.483-5.7-3.147c-.425,8.183-.719,16.375-1.016,24.558l-.614,16.88q-20.631-.786-41.251-1.849,2.112-21.293,5.226-42.474,17.271.56,34.545,1.015-4.467-2.762-8.936-5.966c-8.249-.233-16.5-.457-24.745-.723.092-.59.177-1.181.27-1.771q1.245-7.895,2.651-15.762-2.506-2.4-5.014-4.931c-1.339,7.412-2.617,14.834-3.766,22.276-3.668-.121-7.337-.224-11-.352q-14.97-.524-29.935-1.144c.959-4.252,1.984-8.49,3.046-12.719-.15.079-.3.162-.448.242q-1.442.771-2.857,1.588c-.238.138-.473.281-.71.421q-1.368.813-2.71,1.672l-.324.212q-1,4.171-1.934,8.357c-2.791-.113-5.583-.237-8.375-.353-.184.171-.379.327-.562.5-.73.694-1.433,1.422-2.124,2.168q-.226.245-.451.493c-.678.751-1.343,1.519-1.985,2.317q6.137.261,12.272.519-3.461,16.35-5.9,32.884-.6,4.121-1.136,8.251-11.086-.761-22.169-1.6-.6,2.791-1.109,5.614,11.289.855,22.582,1.638-2.507,20.861-3.382,41.859-11.514-.865-22.989-2.123-.027,1.455-.041,2.874v0q-.015,1.419-.017,2.8,11.406,1.247,22.844,2.122c-.116,3.813-.2,7.626-.235,11.441-.045,5.458.02,10.916.146,16.372l5.859.02q-.309-13.7.083-27.411c14.581,1.008,29.192,1.636,43.813,2.065-.028.687-.066,1.373-.092,2.06q-.435,11.715-.545,23.439l5.874.021q.138-12.679.621-25.352c14.347.372,28.7.582,43.04.8l-.095,2.6q-.4,11.053-.8,22.109l5.865.021q.447-12.317.9-24.633,4.189.066,8.379.137c14.56.253,29.13.584,43.7.89-.107,2.619-.189,5.24-.3,7.86q-.35,7.967-.754,15.932l5.86.022q.588-11.845,1.077-23.693c17.231.35,34.467.638,51.7.694q.145,4.95.293,9.9.195,6.645.393,13.29l5.866.021-.687-23.2c14.193,0,28.382-.173,42.562-.62.085,1.513.176,3.025.26,4.538q.54,9.719,1.031,19.44l5.865.021q-.621-12.106-1.309-24.21,16.447-.621,32.859-1.93c.12,4.487.274,8.973.509,13.456q.336,6.406.95,12.8l5.88.021c-.871-8.886-1.253-17.826-1.473-26.768q9.983-.9,19.933-2.127l0-.164q.036-1.228.064-2.49l.006-.308c.019-.9.036-1.815.047-2.741v-.013Q414.907,456.581,404.8,457.485Zm-257.042.279c-1.183-.034-2.366-.057-3.549-.093-13.444-.408-26.894-.992-40.319-1.9.193-4.851.435-9.7.762-14.545q.927-13.709,2.574-27.355,21.686,1.452,43.388,2.61Q148.7,437.087,147.758,457.764Zm5.479-65.884q-1.146,9.454-2.085,18.93c-2-.106-4-.2-6-.313q-18.607-1.022-37.2-2.273,2.553-19.4,6.536-38.6c.188-.9.4-1.8.59-2.695q20.66.825,41.324,1.512Q154.671,380.144,153.237,391.88Zm43.372,66.9c-14.335-.231-28.67-.492-43-.866q.55-12.026,1.416-24.036.625-8.551,1.423-17.09,20.8,1.07,41.62,1.857Zm57.962,1q-17.338-.309-34.677-.62-8.712-.151-17.424-.285.407-11.168.812-22.335.321-8.837.6-17.68c2.129.077,4.257.165,6.386.238q22.773.783,45.557,1.226Q255.359,440.061,254.571,459.785Zm41.06.651q-17.593-.228-35.187-.552.761-19.715,1.249-39.438,24.441.444,48.887.509l1.173,39.638Q303.689,460.54,295.631,460.436Zm19.359-88.715q19.137.149,38.274.186c.993,7.037,1.713,14.111,2.3,21.191q.913,10.965,1.668,21.945-20.476.243-40.957.225Q315.633,393.494,314.99,371.721Zm2.629,88.9-.5-17.048-.669-22.6q20.328.019,40.654-.212l.519-.008c.888,13.117,1.661,26.241,2.407,39.364C345.9,460.55,331.753,460.669,317.619,460.621Zm44.2-62.733c-.667-8.68-1.473-17.361-2.664-25.99q15.921.01,31.843-.053c2.234,10.893,4.159,21.841,5.455,32.882.375,3.193.679,6.389.934,9.587q-17.169.421-34.341.661Q362.457,406.43,361.815,397.888Zm4.062,62.019q-.682-11.739-1.421-23.475-.5-7.884-1.029-15.769,17.179-.238,34.355-.649c.78,12.643.875,25.314,1.143,37.983C387.928,458.888,376.908,459.5,365.877,459.907Z" style="fill:#a6d36a"/></svg>