<svg xmlns="http://www.w3.org/2000/svg" width="1923.207" height="1385.382" viewBox="0 0 1923.207 1385.382">
  <g id="Kids_playing" data-name="Kids playing" transform="translate(-1802.709 -1055.87)">
    <g id="BG" transform="translate(1802.709 1121.818)">
      <path id="Path_1161" data-name="Path 1161" d="M3429.6,1708.907c-189.756-123.717-226.159-704.354-702.458-607.164s-108.582,435.418-599.2,519.08c-36.861,6.286-104.757,36.789-186.066,148.545s-139.169,108.34-139.169,298.481,217.846,342.414,217.846,342.414H3529.64s196.276-157.471,196.276-323.762-33.414-149.028-107.493-243.426S3457.5,1727.1,3429.6,1708.907Z" transform="translate(-1802.709 -1090.831)" fill="#edf2f9"/>
      <path id="Path_1162" data-name="Path 1162" d="M2735.556,1448.995s-209.237-13.652-357.936,36.48-185.148,8.215-250.755,41.93S2009.041,1756.614,2267.51,1796s233.865,177.895,412.461,204.321,304.346-50.116,392.734-96.589,78.365-38.663,199.556-98.607,142.15-274.078-52.85-244.01S3085.462,1440.745,2735.556,1448.995Z" transform="translate(-1746.612 -774.875)" fill="#c6ddff" fill-rule="evenodd"/>
    </g>
    <g id="swing_2" data-name="swing 2" transform="translate(2854.104 1731.918)">
      <path id="Path_1163" data-name="Path 1163" d="M2457.5,1437.758l-.011,17.849a14.524,14.524,0,0,0,14.523,14.535h247.554v-32.383Z" transform="translate(-2457.476 -1393.429)" fill="#013bff"/>
      <ellipse id="Ellipse_111" data-name="Ellipse 111" cx="132.739" cy="16.624" rx="132.739" ry="16.624" transform="translate(10.748 88.187)" fill="#71a6f4"/>
      <path id="Path_1164" data-name="Path 1164" d="M2459.125,1454.217l29.391-37.1a7.539,7.539,0,0,1,5.914-2.86h245.858a7.545,7.545,0,0,1,6.276,11.733l-24.759,37.1a7.544,7.544,0,0,1-6.276,3.358H2465.039A7.545,7.545,0,0,1,2459.125,1454.217Z" transform="translate(-2457.48 -1414.258)" fill="#3478f6"/>
    </g>
    <g id="shadow" transform="translate(2443.472 1959.794)">
      <ellipse id="Ellipse_112" data-name="Ellipse 112" cx="32.949" cy="9.053" rx="32.949" ry="9.053" transform="translate(428.483 9.628)" fill="#97bff7"/>
      <ellipse id="Ellipse_113" data-name="Ellipse 113" cx="28.133" cy="7.224" rx="28.133" ry="7.224" transform="translate(623.291)" fill="#97bff7"/>
      <ellipse id="Ellipse_114" data-name="Ellipse 114" cx="36.061" cy="9.391" rx="36.061" ry="9.391" transform="translate(0 68.058)" fill="#97bff7"/>
      <ellipse id="Ellipse_115" data-name="Ellipse 115" cx="37.907" cy="10.536" rx="37.907" ry="10.536" transform="translate(128.076 60.736)" fill="#97bff7"/>
    </g>
    <g id="swing_1" data-name="swing 1" transform="translate(2379.638 1759.805)">
      <g id="Group_482" data-name="Group 482">
        <path id="Path_1165" data-name="Path 1165" d="M2206.464,1465.381v21.74c0,7.508,5.791,13.593,12.933,13.593h260.01l.579-35.333Z" transform="translate(-2205.504 -1396.833)" fill="#013bff"/>
        <path id="Path_1166" data-name="Path 1166" d="M2207.581,1493.852l48.043-62.029a7.038,7.038,0,0,1,5.8-2.777l258.78,8.708c6,.2,9.128,7.594,5.251,12.414l-42.9,53.32a7.04,7.04,0,0,1-5.482,2.675H2213.148C2207.1,1506.162,2203.761,1498.782,2207.581,1493.852Z" transform="translate(-2205.955 -1429.042)" fill="#3478f6"/>
      </g>
      <ellipse id="Ellipse_116" data-name="Ellipse 116" cx="156.022" cy="17.165" rx="156.022" ry="17.165" transform="translate(1.009 107.705)" fill="#71a6f4"/>
    </g>
    <g id="swing" transform="translate(2199.529 1408.407)">
      <path id="Path_1167" data-name="Path 1167" d="M2621.546,1890.634h0a4.625,4.625,0,0,1-4.078-5.04l49.389-638.17a4.541,4.541,0,0,1,4.8-4.282h0a4.628,4.628,0,0,1,4.079,5.041l-49.391,638.169A4.539,4.539,0,0,1,2621.546,1890.634Z" transform="translate(-1661.111 -1242.431)" fill="#192684"/>
      <path id="Path_2263" data-name="Path 2263" d="M4.454,0h0A4.454,4.454,0,0,1,8.907,4.454V614.271a4.454,4.454,0,0,1-4.454,4.454h0A4.454,4.454,0,0,1,0,614.271V4.454A4.454,4.454,0,0,1,4.454,0Z" transform="translate(1011.391 7.658) rotate(-4.136)" fill="#192684"/>
      <path id="Path_2262" data-name="Path 2262" d="M4.454,0h0A4.454,4.454,0,0,1,8.907,4.454V614.271a4.454,4.454,0,0,1-4.454,4.454h0A4.454,4.454,0,0,1,0,614.271V4.454A4.454,4.454,0,0,1,4.454,0Z" transform="translate(135.27 6.531)" fill="#192684"/>
      <path id="Path_1168" data-name="Path 1168" d="M2114.016,1882.111h0a4.69,4.69,0,0,1-3.447-5.534l124.945-626.689a4.473,4.473,0,0,1,5.27-3.618h0a4.691,4.691,0,0,1,3.447,5.535l-124.943,626.689A4.473,4.473,0,0,1,2114.016,1882.111Z" transform="translate(-2110.475 -1239.733)" fill="#192684"/>
      <path id="Path_2261" data-name="Path 2261" d="M6.131,0H895.548a6.131,6.131,0,0,1,6.131,6.131h0a6.131,6.131,0,0,1-6.131,6.131H6.131A6.131,6.131,0,0,1,0,6.131H0A6.131,6.131,0,0,1,6.131,0Z" transform="translate(123.38)" fill="#192684"/>
    </g>
    <g id="plants" transform="translate(2064.675 1613.932)">
      <g id="Group_483" data-name="Group 483" transform="translate(0 268.687)">
        <ellipse id="Ellipse_117" data-name="Ellipse 117" cx="108.113" cy="21.871" rx="108.113" ry="21.871" transform="translate(23.877 255.613)" fill="#71a6f4"/>
        <path id="Path_1169" data-name="Path 1169" d="M2075.874,1760.2c-83.153-161.93-5.423-137.289,35.36-70.4-14.484-368.125,106.675-123.207,78.6-17.6,127.973-350.525,148.405-73.926,61.793,17.6,166.955-151.371,157.022-21.122,44.958,56.325s-220.715,14.079-220.715,14.079" transform="translate(-2038.986 -1494.148)" fill="#98bef7"/>
      </g>
      <g id="Group_484" data-name="Group 484" transform="translate(1242.772)">
        <ellipse id="Ellipse_118" data-name="Ellipse 118" cx="59.076" cy="14.228" rx="59.076" ry="14.228" transform="translate(4.369 106.7)" fill="#71a6f4"/>
        <path id="Path_1170" data-name="Path 1170" d="M2713.954,1468.169c-36.4-70.882-2.375-60.1,15.476-30.818-6.339-161.136,46.695-53.931,34.407-7.706,56.017-153.431,64.96-32.359,27.048,7.706,73.082-66.258,68.733-9.247,19.678,24.653s-96.61,6.165-96.61,6.165" transform="translate(-2697.807 -1351.711)" fill="#3478f6"/>
      </g>
      <g id="Group_487" data-name="Group 487" transform="translate(1145.414 351.473)">
        <g id="Group_485" data-name="Group 485" transform="translate(0.443)">
          <path id="Path_1171" data-name="Path 1171" d="M2646.469,1657.913c.664,1.407,6.944-35.315,36.447-66.864,26.908-32.14,77.04-59.109,105.475-51.811,55.123,13.568,20.977,45.531-7.29,42.183-28.885-1.139.371,33.983-31.5,31.511-31.171-.023-28.552,10.2-45.974,12.16C2684.509,1626.194,2645.033,1656.951,2646.469,1657.913Z" transform="translate(-2646.431 -1538.035)" fill="#fff"/>
        </g>
        <g id="Group_486" data-name="Group 486" transform="translate(0 16.232)">
          <path id="Path_1172" data-name="Path 1172" d="M2647.156,1650.672c.764-.945,77.085-94.729,131.259-102.814l-.181-1.218c-54.646,8.155-131.27,102.308-132.038,103.257Z" transform="translate(-2646.196 -1546.64)" fill="#98bef7"/>
        </g>
      </g>
      <g id="Group_490" data-name="Group 490" transform="translate(1140.656 253.577)">
        <g id="Group_488" data-name="Group 488">
          <path id="Path_1173" data-name="Path 1173" d="M2651.377,1709.2c1.616,1.089-15.153-42.422-3.637-95.249,8.349-51.8,44.984-112.914,80.236-123.279,67.969-20.72,51.723,35.526,19.182,50.031-31.791,17.275,22.167,36.307-13.687,54.061-33.536,19.946-24.17,29.261-41.651,42.526C2671.966,1650.72,2649.219,1709.082,2651.377,1709.2Z" transform="translate(-2643.673 -1486.138)" fill="#98bef7"/>
        </g>
        <g id="Group_489" data-name="Group 489" transform="translate(6.509 22.738)">
          <path id="Path_1174" data-name="Path 1174" d="M2648.344,1695.284c.208-1.5,21.665-150.748,88.84-196.072l-.69-1.02c-35.367,23.862-57.785,76.156-70.363,115.824a556.612,556.612,0,0,0-19.007,81.1Z" transform="translate(-2647.124 -1498.192)" fill="#fff"/>
        </g>
      </g>
      <g id="Group_491" data-name="Group 491" transform="translate(1047.034 360.311)">
        <ellipse id="Ellipse_119" data-name="Ellipse 119" cx="69.836" cy="16.819" rx="69.836" ry="16.819" transform="translate(5.165 126.132)" fill="#71a6f4"/>
        <path id="Path_1175" data-name="Path 1175" d="M2613.129,1680.386c-43.026-83.79-2.806-71.038,18.3-36.429-7.495-190.482,55.2-63.753,40.674-9.109,66.216-181.373,76.792-38.251,31.973,9.109,86.39-78.325,81.25-10.929,23.263,29.143s-114.206,7.287-114.206,7.287" transform="translate(-2594.043 -1542.72)" fill="#3478f6"/>
      </g>
    </g>
    <g id="girl_2" data-name="girl 2" transform="translate(2401.409 1500.335)">
      <ellipse id="Ellipse_120" data-name="Ellipse 120" cx="53.938" cy="41.817" rx="53.938" ry="41.817" transform="translate(122.987 259.469)" fill="#2355f5"/>
      <path id="Path_1176" data-name="Path 1176" d="M2353.313,1378.454l41.639,26.675a18.559,18.559,0,0,1,7.54,21.661h0a18.559,18.559,0,0,1-26.967,9.96l-42.545-25.043a18.559,18.559,0,0,1-6.808-25.007l.906-1.632A18.561,18.561,0,0,1,2353.313,1378.454Z" transform="translate(-2123.244 -1217.012)" fill="#fac896"/>
      <path id="Path_1177" data-name="Path 1177" d="M2339.491,1377.077l36.173,23.174a35.61,35.61,0,0,1-3.413,7.872c-.062.1-.125.208-.188.31-7.992,13.063-28.1,8.454-29.982-6.742C2340.553,1389.317,2339.1,1376.826,2339.491,1377.077Z" transform="translate(-2109.422 -1215.635)" fill="#f39c55"/>
      <path id="Path_1178" data-name="Path 1178" d="M2361.479,1396.326c6.983-8.36,16.176-19.9,20.914-28.116l21.5,15.985s-13.518,75.02-52.656,59.033l.632-21.589A41.357,41.357,0,0,1,2361.479,1396.326Z" transform="translate(-2098.955 -1223.491)" fill="#fac896"/>
      <path id="Path_1179" data-name="Path 1179" d="M2280.768,1374.641l-41.639,26.675a18.56,18.56,0,0,0-7.54,21.661h0a18.558,18.558,0,0,0,26.965,9.96l42.545-25.043a18.559,18.559,0,0,0,6.81-25.007l-.905-1.63A18.56,18.56,0,0,0,2280.768,1374.641Z" transform="translate(-2205.901 -1220.392)" fill="#fac896"/>
      <path id="Path_1180" data-name="Path 1180" d="M2274.183,1373.264l-36.175,23.174a35.63,35.63,0,0,0,3.414,7.872c.061.1.124.208.187.311,7.995,13.061,28.107,8.455,29.984-6.744C2273.121,1385.5,2274.575,1373.013,2274.183,1373.264Z" transform="translate(-2199.315 -1219.014)" fill="#f39c55"/>
      <path id="Path_1181" data-name="Path 1181" d="M2305.714,1310.722c-8.047,5.367-26.683,17.8-32.7,41.741-.932,3.708-7.77,30.919,8.7,49.047,9.819,10.811,22.968,12.935,35.481,14.957,24.509,3.961,44.139-2.237,53.221-5.218,25.158-8.256,51.166-19.011,52.726-34.877,1.3-13.242-7.91-18.33-24.31-39.723-13.317-17.37-22.034-27.429-33.862-36.9C2347.685,1285.914,2323.886,1298.6,2305.714,1310.722Z" transform="translate(-2170.232 -1289.513)" fill="#192684"/>
      <path id="Path_1182" data-name="Path 1182" d="M2292.408,1352.725v30.095s22.67,12.116,40.649,0l-3.258-32.57Z" transform="translate(-2151.097 -1239.41)" fill="#fac896"/>
      <path id="Path_1183" data-name="Path 1183" d="M2332.264,1355.844c3.334-9.992-24.523-6.063-39.6-3.262a13.318,13.318,0,0,0-.254,2.475v12.459a9.02,9.02,0,0,0,.852,3.78C2306.608,1370.263,2329.095,1365.333,2332.264,1355.844Z" transform="translate(-2151.093 -1240.152)" fill="#f39c55"/>
      <path id="Path_1184" data-name="Path 1184" d="M2316.68,1305.266c-15.981,5.833-31.6,19.869-35.235,36.488-5.314,24.313-11.09,58.168,33.5,61.563,49.674,3.782,70.367-42.205,70.484-52.948C2385.722,1322.7,2365.227,1287.542,2316.68,1305.266Z" transform="translate(-2163.992 -1283.527)" fill="#fac896"/>
      <path id="Path_1185" data-name="Path 1185" d="M2222.229,1495.554s.415,32.321,62.424,27.152,139.867,22,151.063-16.643-99.428-52.478-99.428-52.478S2263.155,1427.06,2222.229,1495.554Z" transform="translate(-2213.301 -1152.297)" fill="#006e4b"/>
      <path id="Path_1186" data-name="Path 1186" d="M2295.272,1502.306l12.2-18.025a26.215,26.215,0,0,0-11.235-38.723h0a26.147,26.147,0,0,0-25.766,2.735c-14.346,10.375-35.354,30.2-35.671,57.485Z" transform="translate(-2202.16 -1156.875)" fill="#fac896"/>
      <path id="Path_1187" data-name="Path 1187" d="M2299.565,1521.709s-19.471-20.343-12.062-58.93c2.945-15.34,79.327-42.628,64.855,30.063Z" transform="translate(-2156.935 -1155.612)" fill="#fac896"/>
      <circle id="Ellipse_121" data-name="Ellipse 121" cx="29.866" cy="29.866" r="29.866" transform="translate(32.638 319.038)" fill="#fac896"/>
      <path id="Path_1188" data-name="Path 1188" d="M2236.69,1495.253s33.486,65.575,37.912,90.464H2310s-1.128-74.228-18.828-114.6Z" transform="translate(-2200.484 -1132.282)" fill="#fac896"/>
      <path id="Path_1189" data-name="Path 1189" d="M2273.861,1535.1s-14.272,15.014-24.96,19.467-22.716,17.372,9.353,16.479,57.9,3.564,57.01-9.8-6.006-26.149-6.006-26.149S2290.8,1519.637,2273.861,1535.1Z" transform="translate(-2199.742 -1081.66)" fill="#55312f"/>
      <circle id="Ellipse_122" data-name="Ellipse 122" cx="29.866" cy="29.866" r="29.866" transform="translate(138.007 320.35)" fill="#fac896"/>
      <path id="Path_1190" data-name="Path 1190" d="M2294.836,1505.174s48.719,55.21,59.185,78.221l34.288-8.789s-19.521-71.623-46.689-106.34Z" transform="translate(-2148.946 -1134.804)" fill="#fac896"/>
      <path id="Path_1191" data-name="Path 1191" d="M2320.79,1556.329a10.641,10.641,0,0,0,5.623,16.024c4.518,1.37,11.19,2.009,21.2,1.492,25.358-1.313,27.544-6.121,27.982-12.68s-3.465-26.535-8.728-34.473-27.9-5.091-34.288,8.789A167.008,167.008,0,0,1,2320.79,1556.329Z" transform="translate(-2127.505 -1086.891)" fill="#55312f"/>
      <path id="Path_1192" data-name="Path 1192" d="M2287.5,1462.777c-2.769,14.417-1.782,26.286.536,35.5a115.88,115.88,0,0,0,25.671-4.007c7.376-2.024,9.015-4.448,15.319-5.344a44.181,44.181,0,0,1,23.406,3.486C2366.516,1420.268,2290.442,1447.469,2287.5,1462.777Z" transform="translate(-2156.936 -1155.61)" fill="#f39c55"/>
      <path id="Path_1193" data-name="Path 1193" d="M2295.971,1445.559h0a26.147,26.147,0,0,0-25.766,2.735c-13.073,9.454-31.668,26.756-35.109,50.4,4.906-7.07,9.8-9.887,14.2-10.639,7.3-1.249,10.75,3.582,29.927,7.838a137.359,137.359,0,0,0,18.245,2.786l9.741-14.395A26.215,26.215,0,0,0,2295.971,1445.559Z" transform="translate(-2201.896 -1156.875)" fill="#f39c55"/>
      <path id="Path_1194" data-name="Path 1194" d="M2308.975,1430.658s-82.321,58.973-86.746,96.583c15.917,20.435,24.653-35.8,61.892-22.591,54.459,19.324,68.26,8.794,89.64.619s59.441,30.6,61.955,32.481,5.933-83.358-22.363-110S2325.524,1415.114,2308.975,1430.658Z" transform="translate(-2213.301 -1183.985)" fill="#0c9e72"/>
      <path id="Path_1195" data-name="Path 1195" d="M2227.3,1531.25a6.509,6.509,0,0,1-2.541-.53l-.281-.119.04-.3a4.425,4.425,0,0,1,8.243-1.648l.179.313-.292.213A9.2,9.2,0,0,1,2227.3,1531.25Zm-1.931-1.156c2.019.73,4.1.3,6.5-1.349a3.6,3.6,0,0,0-2.952-1.534A3.639,3.639,0,0,0,2225.364,1530.094Zm196.158-3.573-.183-.153c-1.814-1.532-3.633-3.018-5.41-4.418l-.185-.147.036-.234a4.445,4.445,0,1,1,5.963,4.867Zm-4.9-5.05c1.66,1.311,3.357,2.7,5.051,4.124a3.613,3.613,0,0,0,2.137-3.307,3.64,3.64,0,0,0-7.189-.817Zm-78.869-10.883a4.452,4.452,0,1,1,4.45-4.452A4.457,4.457,0,0,1,2337.751,1510.589Zm0-8.1a3.646,3.646,0,1,0,3.647,3.646A3.65,3.65,0,0,0,2337.751,1502.491Zm-108.841,8.1a4.386,4.386,0,0,1-2.826-1.039l-.259-.213.163-.291c1.2-2.159,2.613-4.463,4.207-6.84l.187-.281.308.135a4.449,4.449,0,0,1-1.779,8.528Zm-2.049-1.456a3.559,3.559,0,0,0,2.049.651,3.644,3.644,0,0,0,1.756-6.838C2229.241,1505.091,2227.962,1507.169,2226.862,1509.133Zm168.361-.715-.364-.178a56.116,56.116,0,0,0-7.408-3.009l-.39-.124.132-.389a4.441,4.441,0,0,1,8.653,1.419,4.361,4.361,0,0,1-.449,1.915Zm-7.117-3.82a56.633,56.633,0,0,1,6.723,2.735,3.534,3.534,0,0,0,.213-1.2,3.637,3.637,0,0,0-6.936-1.539Zm-100.947,1.319-.579-.194c-1.512-.511-3.048-1.042-4.627-1.6-.732-.26-1.489-.5-2.383-.752l-.617-.174.427-.481a4.423,4.423,0,0,1,7.73,2.594Zm-6.689-3.124c.628.187,1.194.372,1.75.57,1.355.481,2.679.94,3.982,1.38a3.61,3.61,0,0,0-5.733-1.95Zm138.412-8.107a4.451,4.451,0,1,1,4.45-4.45A4.454,4.454,0,0,1,2418.882,1494.686Zm0-8.1a3.646,3.646,0,1,0,3.647,3.646A3.65,3.65,0,0,0,2418.882,1486.589Zm-55.059,8.1a4.451,4.451,0,1,1,4.45-4.45A4.452,4.452,0,0,1,2363.823,1494.686Zm0-8.1a3.646,3.646,0,1,0,3.648,3.646A3.651,3.651,0,0,0,2363.823,1486.589Zm-53.878,8.1a4.451,4.451,0,1,1,4.45-4.45A4.454,4.454,0,0,1,2309.944,1494.686Zm0-8.1a3.646,3.646,0,1,0,3.647,3.646A3.65,3.65,0,0,0,2309.944,1486.589Zm-54.961,8.1a4.451,4.451,0,1,1,4.45-4.45A4.455,4.455,0,0,1,2254.984,1494.686Zm0-8.1a3.646,3.646,0,1,0,3.646,3.646A3.65,3.65,0,0,0,2254.984,1486.589Zm134.9-7.583a4.456,4.456,0,0,1-4.449-4.452,5.167,5.167,0,0,1,4.686-4.922,4.456,4.456,0,0,1,4.45,4.45,5.172,5.172,0,0,1-4.686,4.923Zm.236-8.57a3.623,3.623,0,0,0-3.382,2.307l-.023.047a3.573,3.573,0,0,0-.477,1.764,3.642,3.642,0,0,0,7.03,1.341,3.691,3.691,0,0,0,.5-1.813A3.65,3.65,0,0,0,2390.115,1470.436Zm-53.88,8.57a4.451,4.451,0,1,1,4.45-4.452A4.454,4.454,0,0,1,2336.235,1479.006Zm0-8.1a3.646,3.646,0,1,0,3.648,3.646A3.651,3.651,0,0,0,2336.235,1470.908Zm-55.2,8.1a4.69,4.69,0,1,1,4.59-4.923,4.359,4.359,0,0,1-.238,1.379A4.434,4.434,0,0,1,2281.038,1479.006Zm.139-8.57a3.655,3.655,0,0,0-3.576,2.943,3.893,3.893,0,0,0-.209,1.175,3.645,3.645,0,0,0,7.223.7,3.751,3.751,0,0,0,.209-1.175A3.65,3.65,0,0,0,2281.177,1470.436Zm139.587-2.182a4.452,4.452,0,1,1,4.45-4.452A4.457,4.457,0,0,1,2420.764,1468.254Zm0-8.1a3.646,3.646,0,1,0,3.646,3.646A3.651,3.651,0,0,0,2420.764,1460.156Zm-54.823,8.1a4.452,4.452,0,1,1,4.452-4.452A4.456,4.456,0,0,1,2365.941,1468.254Zm0-8.1a3.646,3.646,0,1,0,3.648,3.646A3.651,3.651,0,0,0,2365.941,1460.156Zm-53.878,8.1a4.452,4.452,0,1,1,4.45-4.452A4.457,4.457,0,0,1,2312.063,1468.254Zm0-8.1a3.646,3.646,0,1,0,3.646,3.646A3.651,3.651,0,0,0,2312.063,1460.156Zm79.934-7.583a4.456,4.456,0,0,1-4.452-4.452,1.444,1.444,0,0,1,.015-.186c-.008-.159-.015-.219-.015-.285a4.451,4.451,0,1,1,8.9,0,1.373,1.373,0,0,1-.017.195c.009.147.017.211.017.277A4.456,4.456,0,0,1,2392,1452.573Zm0-8.57a3.651,3.651,0,0,0-3.648,3.646,1.915,1.915,0,0,1,.025.219,1.15,1.15,0,0,1-.015.179,3.643,3.643,0,1,0,7.285.073l-.023-.207.013-.181A3.655,3.655,0,0,0,2392,1444Zm-53.644,8.57a4.452,4.452,0,1,1,4.452-4.452A4.455,4.455,0,0,1,2338.353,1452.573Zm0-8.1a3.646,3.646,0,1,0,3.648,3.646A3.651,3.651,0,0,0,2338.353,1444.474Zm-55.2,8.1a4.447,4.447,0,0,1-3.3-1.487l-.277-.309.317-.268c2.1-1.771,4.3-3.588,6.521-5.4l.345-.279.243.37a4.886,4.886,0,0,1-3.85,7.374Zm-2.4-1.73a3.628,3.628,0,0,0,5.982-2.018,3.9,3.9,0,0,0,.209-1.175,3.613,3.613,0,0,0-.381-1.619C2284.584,1447.644,2282.634,1449.26,2280.751,1450.843Zm137.423-13.859a4.429,4.429,0,0,1-3.822-6.7l.293-.5.365.445a50.918,50.918,0,0,1,4.25,6.068l.3.5-.57.108A4.4,4.4,0,0,1,2418.174,1436.984Zm-3.392-5.757a3.474,3.474,0,0,0-.254,1.306,3.65,3.65,0,0,0,3.646,3.646h.072A50.606,50.606,0,0,0,2414.782,1431.226Zm-50.96,5.286a4.452,4.452,0,1,1,4.45-4.452A4.454,4.454,0,0,1,2363.823,1436.512Zm0-8.1a3.646,3.646,0,1,0,3.648,3.646A3.651,3.651,0,0,0,2363.823,1428.414Zm-53.878,8.1a4.456,4.456,0,0,1-4.449-4.452,4.382,4.382,0,0,1,.554-2.115l.117-.134.519-.373c.517-.487,1.1-.987,1.779-1.53l.128-.07a4.4,4.4,0,0,1,1.352-.23,4.452,4.452,0,0,1,0,8.9Zm-3.229-6.1a3.538,3.538,0,0,0-.417,1.65,3.646,3.646,0,1,0,3.646-3.646,3.518,3.518,0,0,0-1.037.17c-.645.518-1.2,1-1.69,1.458l-.042.034Zm83.163-9.577a1.282,1.282,0,0,1-.192-.017c-.149.01-.213.017-.279.017a4.456,4.456,0,0,1-4.45-4.452,4.408,4.408,0,0,1,.824-2.569l.156-.219.262.06a66.965,66.965,0,0,1,7.864,2.35l.264.1v.281A4.458,4.458,0,0,1,2389.879,1420.833Zm-3.589-6.331a3.6,3.6,0,0,0-.528,1.879,3.65,3.65,0,0,0,3.646,3.646.622.622,0,0,0,.083-.01l.125-.013.183.013h.015a3.658,3.658,0,0,0,3.7-3.359A66.651,66.651,0,0,0,2386.29,1414.5Zm-50.055,6.331a4.415,4.415,0,0,1-4.384-3.784l-.051-.344.332-.1c2.568-.779,5.184-1.475,7.781-2.071l.342-.077.125.324a4.436,4.436,0,0,1-4.145,6.053Zm-3.52-3.565a3.61,3.61,0,0,0,3.52,2.76,3.652,3.652,0,0,0,3.648-3.646,3.564,3.564,0,0,0-.143-.983C2337.393,1415.945,2335.035,1416.573,2332.715,1417.268Z" transform="translate(-2211.311 -1183.265)" fill="#fff"/>
      <g id="Group_492" data-name="Group 492" transform="translate(140.456 77.91)">
        <path id="Path_1196" data-name="Path 1196" d="M2297.91,1343.5a.565.565,0,0,1-.081-.006c-.167-.028-4.1-.7-5.42-2.577a2.3,2.3,0,0,1-.416-1.782c.524-2.979,5.444-6.131,5.653-6.263a.493.493,0,0,1,.53.832c-1.324.841-4.838,3.484-5.212,5.6a1.336,1.336,0,0,0,.253,1.043c.9,1.279,3.754,2,4.774,2.171a.494.494,0,0,1-.081.981Z" transform="translate(-2291.955 -1332.793)" fill="#f97700"/>
      </g>
      <path id="Path_1197" data-name="Path 1197" d="M2287.594,1338.984s10.287,3.967,20.79,4.026C2310.812,1343.023,2290.6,1360.705,2287.594,1338.984Z" transform="translate(-2155.364 -1249.395)" fill="#f97700"/>
      <circle id="Ellipse_123" data-name="Ellipse 123" cx="0.921" cy="0.921" r="0.921" transform="translate(120.889 75.652)" fill="#f39c55"/>
      <circle id="Ellipse_124" data-name="Ellipse 124" cx="0.921" cy="0.921" r="0.921" transform="translate(126.553 76.957)" fill="#f39c55"/>
      <circle id="Ellipse_125" data-name="Ellipse 125" cx="0.921" cy="0.921" r="0.921" transform="translate(123.226 78.643)" fill="#f39c55"/>
      <circle id="Ellipse_126" data-name="Ellipse 126" cx="0.921" cy="0.921" r="0.921" transform="translate(129.255 80.739)" fill="#f39c55"/>
      <circle id="Ellipse_127" data-name="Ellipse 127" cx="0.921" cy="0.921" r="0.921" transform="translate(160.578 87.933)" fill="#f39c55"/>
      <circle id="Ellipse_128" data-name="Ellipse 128" cx="0.921" cy="0.921" r="0.921" transform="translate(166.241 89.238)" fill="#f39c55"/>
      <circle id="Ellipse_129" data-name="Ellipse 129" cx="0.921" cy="0.921" r="0.921" transform="translate(162.915 90.924)" fill="#f39c55"/>
      <circle id="Ellipse_130" data-name="Ellipse 130" cx="0.921" cy="0.921" r="0.921" transform="translate(168.944 93.02)" fill="#f39c55"/>
      <path id="Path_1198" data-name="Path 1198" d="M2352.231,1339.829c-8.752,3.448-25.926,8.606-45.52,3.52-16.374-4.248-38.829-16.79-37.222-28.671.934-6.908,9.743-11.131,15.089-13.58,5.033-2.307,51.13-23.593,84.252,5.784,17.4,15.432,33.911,50.628,28.622,71.929-3.8,15.317-36.876,46.766-46.52,36.316-13.536-14.672,12.169-27.631,13.535-46.414C2365.381,1356.178,2352.012,1338.5,2352.231,1339.829Z" transform="translate(-2171.483 -1291.491)" fill="#192684"/>
      <path id="Path_1199" data-name="Path 1199" d="M2319,1332.5l10.818-3.026c4.484-1.256,9.013,2.726,7.819,7.229a6.687,6.687,0,0,1-.275.817l-2.171,5.274a15.93,15.93,0,0,1-17.755,9.581l-1.941-.373Z" transform="translate(-2130.635 -1258.03)" fill="#fac896"/>
      <path id="Path_1200" data-name="Path 1200" d="M2292.4,1335.286c0,1.888-1.585.8-3.473.8s-3.365,1.086-3.365-.8a3.419,3.419,0,0,1,6.838,0Zm34.332,5.263a3.422,3.422,0,0,0-4.578,1.56c-.832,1.694.971,1.372,2.667,2.205s2.638,2.507,3.469.813A3.42,3.42,0,0,0,2326.727,1340.55Zm-29.9-12.914a.7.7,0,0,0-.2-.979c-4.523-2.978-7.911-3.307-12.5-1.2a.708.708,0,0,0,.59,1.287c4.173-1.913,6.981-1.635,11.131,1.1a.706.706,0,0,0,.979-.2Zm38.367,10.75a.706.706,0,0,0,.06-1c-3.59-4.058-6.781-5.257-11.752-4.422a.71.71,0,0,0-.581.815.7.7,0,0,0,.815.581c4.524-.756,7.164.241,10.46,3.963a.7.7,0,0,0,1,.061Z" transform="translate(-2158.799 -1262.583)" fill="#231f20"/>
      <path id="Path_1201" data-name="Path 1201" d="M2334.3,1359.01s-38.51,3.988-60.678,17.767c-13.321,8.281-22.08,14.38-26.413,17.507a4.972,4.972,0,0,0-1.656,5.988l14.874,34.835a4.98,4.98,0,0,0,7.084,2.349l8.709-3.48a7.1,7.1,0,0,1,9.509,8.375l-13.044,50.309s69.427,34.22,131.771-1.315l-7.347-53.61a4.644,4.644,0,0,1,7.242-4.331l10.307,5.823a7.94,7.94,0,0,0,10.486-2.471l18.1-26.824a7.93,7.93,0,0,0-1.139-10.222c-11.1-10.42-39.632-34.715-67.975-38.526C2374.126,1361.185,2351.038,1389.563,2334.3,1359.01Z" transform="translate(-2192.982 -1231.645)" fill="#e62822"/>
      <path id="Path_1202" data-name="Path 1202" d="M2259.909,1392.513c-6.985-8.36-16.175-19.9-20.914-28.116l-21.5,15.987s13.515,75.018,52.654,59.032l-.632-21.59A41.368,41.368,0,0,0,2259.909,1392.513Z" transform="translate(-2217.496 -1226.87)" fill="#fac896"/>
      <path id="Path_1203" data-name="Path 1203" d="M2259.749,1467.651s18.763,9.224,45.515,13.118c-8.664-6.117-16.764-12.682-15.177-18.648,2.708-10.192,31.289-9.545,31.495-15.566.217-6.382-31.944-5.936-38.737-22.444-6.049-14.7,11.807-33.675,7.965-36.563-2.434-1.83-11.441,4.4-18.1,12.671a45.65,45.65,0,0,0-5.4,8.368,7.109,7.109,0,0,1,5.488,8.757Z" transform="translate(-2180.045 -1206.636)" fill="#cc0908"/>
      <path id="Path_1204" data-name="Path 1204" d="M2332.5,1397.005c-5.184-6.329-5.664-12.933-7.752-12.646-2.652.364-5.031,11.437-2.039,21.212a37.3,37.3,0,0,0,7.346,13l-.453-3.3a4.644,4.644,0,0,1,7.242-4.331l10.307,5.823a7.94,7.94,0,0,0,10.487-2.471l3.2-4.739C2353.858,1407.345,2340.883,1407.243,2332.5,1397.005Z" transform="translate(-2125.473 -1209.185)" fill="#cc0908"/>
      <path id="Path_1205" data-name="Path 1205" d="M2296.05,1359.01s-2.977.309-7.74,1.049a45.623,45.623,0,0,0,3.692,7.5,26.607,26.607,0,0,0,14.916,11.492c8.008,2.69,18.239.76,24.453-2.445,5.457-2.813,10.479-6.531,13.367-13.584a67.917,67.917,0,0,0-8.862-1.836S2312.785,1389.563,2296.05,1359.01Z" transform="translate(-2154.729 -1231.645)" fill="#cc0908"/>
    </g>
    <g id="elements" transform="translate(2180.987 1055.87)">
      <path id="Path_1206" data-name="Path 1206" d="M2135.6,1250.027c-44.967,0-47.348-66.945-2.473-69.8q.636-.042,1.277-.076c0-.279-.021-.557-.021-.836a86.653,86.653,0,0,1,128.253-76,89.969,89.969,0,0,1,169.253,42.52c0,2.667-.138,5.3-.365,7.907a104.745,104.745,0,0,1,115.973,42.288c15.471,23.01-1.564,54-29.293,54Z" transform="translate(-2100.646 -1055.87)" fill="#98bef7"/>
      <path id="Path_1207" data-name="Path 1207" d="M2580.959,1250.955c-26.134,0-27.519-38.908-1.437-40.57.246-.017.494-.032.743-.043,0-.164-.013-.325-.013-.487a50.361,50.361,0,0,1,74.539-44.169,52.288,52.288,0,0,1,98.366,24.711c0,1.55-.081,3.081-.213,4.6a60.878,60.878,0,0,1,67.4,24.576c8.992,13.374-.909,31.385-17.025,31.385Z" transform="translate(-1692.921 -982.974)" fill="#b3d9ff"/>
      <g id="Group_515" data-name="Group 515" transform="translate(813.187 82.551)">
        <g id="Group_493" data-name="Group 493" transform="translate(8.8 124.524)">
          <path id="Path_1208" data-name="Path 1208" d="M2549.222,1191.29a12.822,12.822,0,1,1,12.822-12.822A12.838,12.838,0,0,1,2549.222,1191.29Zm0-21.621a8.8,8.8,0,1,0,8.8,8.8A8.808,8.808,0,0,0,2549.222,1169.669Z" transform="translate(-2536.399 -1165.645)" fill="#ef4923"/>
        </g>
        <g id="Group_494" data-name="Group 494" transform="translate(0 54.14)">
          <path id="Path_1209" data-name="Path 1209" d="M2544.557,1153.978a12.822,12.822,0,1,1,12.822-12.821A12.837,12.837,0,0,1,2544.557,1153.978Zm0-21.621a8.8,8.8,0,1,0,8.8,8.8A8.808,8.808,0,0,0,2544.557,1132.357Z" transform="translate(-2531.734 -1128.333)" fill="#f3c04c"/>
        </g>
        <g id="Group_502" data-name="Group 502" transform="translate(58.351 69.601)">
          <g id="Group_497" data-name="Group 497" transform="translate(12.452)">
            <g id="Group_495" data-name="Group 495">
              <path id="Path_1210" data-name="Path 1210" d="M2571.279,1149.422a2.011,2.011,0,0,1-2.01-2.011v-8.871a2.01,2.01,0,1,1,4.021,0v8.871A2.011,2.011,0,0,1,2571.279,1149.422Z" transform="translate(-2569.268 -1136.529)" fill="#f3c04c"/>
            </g>
            <g id="Group_496" data-name="Group 496" transform="translate(0 15.523)">
              <path id="Path_1211" data-name="Path 1211" d="M2571.279,1157.651a2.012,2.012,0,0,1-2.01-2.013v-8.87a2.01,2.01,0,1,1,4.021,0v8.87A2.011,2.011,0,0,1,2571.279,1157.651Z" transform="translate(-2569.268 -1144.758)" fill="#f3c04c"/>
            </g>
          </g>
          <g id="Group_501" data-name="Group 501" transform="translate(0 12.197)">
            <g id="Group_499" data-name="Group 499" transform="translate(16.934)">
              <g id="Group_498" data-name="Group 498">
                <path id="Path_1212" data-name="Path 1212" d="M2581.622,1147.016h-7.968a2.011,2.011,0,0,1,0-4.021h7.968a2.011,2.011,0,1,1,0,4.021Z" transform="translate(-2571.644 -1142.995)" fill="#f3c04c"/>
              </g>
            </g>
            <g id="Group_500" data-name="Group 500">
              <path id="Path_1213" data-name="Path 1213" d="M2572.647,1147.016h-7.968a2.011,2.011,0,1,1,0-4.021h7.968a2.011,2.011,0,1,1,0,4.021Z" transform="translate(-2562.667 -1142.995)" fill="#f3c04c"/>
            </g>
          </g>
        </g>
        <g id="Group_514" data-name="Group 514" transform="translate(49.885)">
          <g id="Group_513" data-name="Group 513">
            <g id="Group_507" data-name="Group 507" transform="translate(12.45)">
              <g id="Group_504" data-name="Group 504">
                <g id="Group_503" data-name="Group 503">
                  <path id="Path_1214" data-name="Path 1214" d="M2566.792,1112.525a2.014,2.014,0,0,1-2.013-2.013v-8.87a2.012,2.012,0,0,1,4.024,0v8.87A2.013,2.013,0,0,1,2566.792,1112.525Z" transform="translate(-2564.779 -1099.632)" fill="#ef4923"/>
                </g>
              </g>
              <g id="Group_506" data-name="Group 506" transform="translate(0 15.523)">
                <g id="Group_505" data-name="Group 505">
                  <path id="Path_1215" data-name="Path 1215" d="M2566.792,1120.752a2.012,2.012,0,0,1-2.013-2.011v-8.87a2.012,2.012,0,0,1,4.024,0v8.87A2.011,2.011,0,0,1,2566.792,1120.752Z" transform="translate(-2564.779 -1107.861)" fill="#ef4923"/>
                </g>
              </g>
            </g>
            <g id="Group_512" data-name="Group 512" transform="translate(0 12.195)">
              <g id="Group_509" data-name="Group 509" transform="translate(16.932)">
                <g id="Group_508" data-name="Group 508">
                  <path id="Path_1216" data-name="Path 1216" d="M2577.136,1110.12h-7.969a2.012,2.012,0,1,1,0-4.023h7.969a2.012,2.012,0,0,1,0,4.023Z" transform="translate(-2567.155 -1106.097)" fill="#ef4923"/>
                </g>
              </g>
              <g id="Group_511" data-name="Group 511">
                <g id="Group_510" data-name="Group 510">
                  <path id="Path_1217" data-name="Path 1217" d="M2568.158,1110.12h-7.968a2.012,2.012,0,0,1,0-4.023h7.968a2.012,2.012,0,1,1,0,4.023Z" transform="translate(-2558.179 -1106.097)" fill="#ef4923"/>
                </g>
              </g>
            </g>
          </g>
        </g>
      </g>
      <g id="Group_533" data-name="Group 533" transform="translate(155.718 1066.989)">
        <g id="Group_516" data-name="Group 516" transform="translate(8.658 128.434)">
          <path id="Path_1218" data-name="Path 1218" d="M2200.4,1716.042c-6.957,0-12.616-5.933-12.616-13.225s5.659-13.225,12.616-13.225,12.614,5.933,12.614,13.225S2207.356,1716.042,2200.4,1716.042Zm0-22.3a9.086,9.086,0,1,0,8.659,9.075A8.883,8.883,0,0,0,2200.4,1693.741Z" transform="translate(-2187.785 -1689.591)" fill="#499d75"/>
        </g>
        <g id="Group_517" data-name="Group 517" transform="translate(0 55.842)">
          <path id="Path_1219" data-name="Path 1219" d="M2195.811,1677.558c-6.955,0-12.616-5.933-12.616-13.225s5.661-13.225,12.616-13.225,12.616,5.933,12.616,13.225S2202.768,1677.558,2195.811,1677.558Zm0-22.3a9.086,9.086,0,1,0,8.658,9.077A8.886,8.886,0,0,0,2195.811,1655.256Z" transform="translate(-2183.195 -1651.108)" fill="#2355f5"/>
        </g>
        <g id="Group_525" data-name="Group 525" transform="translate(57.409 71.787)">
          <g id="Group_520" data-name="Group 520" transform="translate(12.25)">
            <g id="Group_518" data-name="Group 518">
              <path id="Path_1220" data-name="Path 1220" d="M2222.1,1672.858a2.028,2.028,0,0,1-1.979-2.073v-9.151a1.981,1.981,0,1,1,3.958,0v9.151A2.028,2.028,0,0,1,2222.1,1672.858Z" transform="translate(-2220.123 -1659.561)" fill="#2355f5"/>
            </g>
            <g id="Group_519" data-name="Group 519" transform="translate(0 16.009)">
              <path id="Path_1221" data-name="Path 1221" d="M2222.1,1681.347a2.03,2.03,0,0,1-1.979-2.075v-9.149a1.981,1.981,0,1,1,3.958,0v9.149A2.029,2.029,0,0,1,2222.1,1681.347Z" transform="translate(-2220.123 -1668.048)" fill="#2355f5"/>
            </g>
          </g>
          <g id="Group_524" data-name="Group 524" transform="translate(0 12.58)">
            <g id="Group_522" data-name="Group 522" transform="translate(16.66)">
              <g id="Group_521" data-name="Group 521">
                <path id="Path_1222" data-name="Path 1222" d="M2232.28,1670.378h-7.84a2.077,2.077,0,0,1,0-4.148h7.84a2.077,2.077,0,0,1,0,4.148Z" transform="translate(-2222.461 -1666.23)" fill="#2355f5"/>
              </g>
            </g>
            <g id="Group_523" data-name="Group 523">
              <path id="Path_1223" data-name="Path 1223" d="M2223.448,1670.378h-7.84a2.077,2.077,0,0,1,0-4.148h7.84a2.077,2.077,0,0,1,0,4.148Z" transform="translate(-2213.629 -1666.23)" fill="#2355f5"/>
            </g>
          </g>
        </g>
        <g id="Group_532" data-name="Group 532" transform="translate(49.079)">
          <g id="Group_528" data-name="Group 528" transform="translate(12.25)">
            <g id="Group_526" data-name="Group 526">
              <path id="Path_1224" data-name="Path 1224" d="M2217.686,1634.8a2.029,2.029,0,0,1-1.979-2.075v-9.149a1.981,1.981,0,1,1,3.957,0v9.149A2.028,2.028,0,0,1,2217.686,1634.8Z" transform="translate(-2215.707 -1621.505)" fill="#499d75"/>
            </g>
            <g id="Group_527" data-name="Group 527" transform="translate(0 16.011)">
              <path id="Path_1225" data-name="Path 1225" d="M2217.686,1643.29a2.03,2.03,0,0,1-1.979-2.075v-9.148a1.981,1.981,0,1,1,3.957,0v9.148A2.028,2.028,0,0,1,2217.686,1643.29Z" transform="translate(-2215.707 -1629.993)" fill="#499d75"/>
            </g>
          </g>
          <g id="Group_531" data-name="Group 531" transform="translate(0 12.58)">
            <g id="Group_529" data-name="Group 529" transform="translate(16.66)">
              <path id="Path_1226" data-name="Path 1226" d="M2227.864,1632.322h-7.84a2.076,2.076,0,0,1,0-4.148h7.84a2.076,2.076,0,0,1,0,4.148Z" transform="translate(-2218.045 -1628.174)" fill="#499d75"/>
            </g>
            <g id="Group_530" data-name="Group 530">
              <path id="Path_1227" data-name="Path 1227" d="M2219.031,1632.322h-7.84a2.076,2.076,0,0,1,0-4.148h7.84a2.076,2.076,0,0,1,0,4.148Z" transform="translate(-2209.213 -1628.174)" fill="#499d75"/>
            </g>
          </g>
        </g>
      </g>
    </g>
    <g id="girl_1" data-name="girl 1" transform="translate(2864.852 1484.408)">
      <path id="Path_1228" data-name="Path 1228" d="M2484.2,1370.326l44.35-24.6c7.677-4.257,17.77-2.769,24.427,3.6h0c9.132,8.739,8.074,22.742-2.19,28.97l-43.161,26.192c-8.8,5.344-20.946,2.743-27.364-5.861l-1.19-1.594C2472.249,1387.89,2474.6,1375.651,2484.2,1370.326Z" transform="translate(-2452.557 -1229.63)" fill="#fac896"/>
      <path id="Path_1229" data-name="Path 1229" d="M2620.489,1348.978l-51.278-8.89c-8.877-1.538-18.636,3.378-23.621,11.9h0c-6.838,11.688-2,25.039,10.009,27.62l50.513,10.858c10.3,2.215,21.827-4.493,25.969-15.119l.768-1.967C2637.255,1362.082,2631.592,1350.9,2620.489,1348.978Z" transform="translate(-2392.903 -1232.738)" fill="#fac896"/>
      <path id="Path_1230" data-name="Path 1230" d="M2586.03,1354.825c6.983-8.36,16.176-19.9,20.914-28.116l21.5,15.985s-13.516,75.019-52.654,59.034l.632-21.59A41.356,41.356,0,0,1,2586.03,1354.825Z" transform="translate(-2363.365 -1244.348)" fill="#fac896"/>
      <path id="Path_1231" data-name="Path 1231" d="M2504.539,1366.584c-5.308-9.513-12.192-22.564-15.319-31.515l-22.131,8.878s-2.643,79.053,38.785,70.629l3.4-21.331A41.369,41.369,0,0,0,2504.539,1366.584Z" transform="translate(-2459.74 -1236.938)" fill="#fac896"/>
      <path id="Path_2260" data-name="Path 2260" d="M11.9,0h0A11.9,11.9,0,0,1,23.8,11.9V36.094A11.9,11.9,0,0,1,11.9,48h0A11.9,11.9,0,0,1,0,36.094V11.9A11.9,11.9,0,0,1,11.9,0Z" transform="translate(44.805 129.913) rotate(-11.868)" fill="#f39c55"/>
      <path id="Path_2259" data-name="Path 2259" d="M11.9,0h0A11.9,11.9,0,0,1,23.8,11.9V40.526a11.9,11.9,0,0,1-11.9,11.9h0A11.9,11.9,0,0,1,0,40.526V11.9A11.9,11.9,0,0,1,11.9,0Z" transform="translate(195.202 109.114) rotate(11.899)" fill="#f39c55"/>
      <path id="Path_1232" data-name="Path 1232" d="M2573.672,1384.549s-72.383,17.085-74.7,4.133,2.494-104.14,49.372-105.564,57.907,19.2,59.514,30.5,6.889,37.674-1.639,53.429S2573.672,1384.549,2573.672,1384.549Z" transform="translate(-2431.866 -1283.048)" fill="#55312f"/>
      <path id="Path_2258" data-name="Path 2258" d="M10.683,0H29.368A10.683,10.683,0,0,1,40.051,10.683v26.1A10.683,10.683,0,0,1,29.368,47.461H10.683A10.683,10.683,0,0,1,0,36.778v-26.1A10.683,10.683,0,0,1,10.683,0Z" transform="translate(109.011 78.14) rotate(-3.71)" fill="#fac896"/>
      <path id="Path_1233" data-name="Path 1233" d="M2521.476,1342.89l.393,3.024a5.653,5.653,0,0,0,4.246,4.763c6.938,1.723,22.014,4.486,32.688-.613a5.678,5.678,0,0,0,3.22-5.395l-.568-11.948a5.66,5.66,0,0,0-7.375-5.122l-28.714,9.172A5.659,5.659,0,0,0,2521.476,1342.89Z" transform="translate(-2411.546 -1243.8)" fill="#f39c55"/>
      <path id="Path_1234" data-name="Path 1234" d="M2522.26,1298.493c-9.783,9.457-16.615,25.56-13.829,40.3,4.078,21.559,10.942,51.1,44.686,40.909,37.592-11.358,37.667-55.236,34.232-64.114C2578.5,1292.728,2551.981,1269.76,2522.26,1298.493Z" transform="translate(-2423.623 -1281.251)" fill="#fac896"/>
      <g id="Group_534" data-name="Group 534" transform="translate(116.642 62.737)">
        <path id="Path_1235" data-name="Path 1235" d="M2532.67,1325.385a.535.535,0,0,1-.072.04c-.157.066-3.823,1.626-5.952.768a2.3,2.3,0,0,1-1.317-1.271c-1.171-2.79,1.258-8.1,1.362-8.328a.494.494,0,1,1,.9.415c-.656,1.422-2.18,5.548-1.349,7.531a1.338,1.338,0,0,0,.777.739c1.453.585,4.239-.351,5.19-.76a.494.494,0,0,1,.464.868Z" transform="translate(-2525.012 -1316.306)" fill="#f97700"/>
      </g>
      <path id="Path_1236" data-name="Path 1236" d="M2522.28,1328.751s11.022-.121,20.8-3.952C2545.344,1323.915,2533.108,1347.818,2522.28,1328.751Z" transform="translate(-2410.792 -1246.062)" fill="#f97700"/>
      <g id="Group_535" data-name="Group 535" transform="translate(92.997 54.863)">
        <path id="Path_1237" data-name="Path 1237" d="M2525.279,1313.394a.7.7,0,0,0-.549-.834c-5.3-1.1-8.573-.147-12.057,3.5a.708.708,0,0,0,1.024.977c3.169-3.322,5.88-4.1,10.748-3.1a.713.713,0,0,0,.4-.036A.7.7,0,0,0,2525.279,1313.394Z" transform="translate(-2512.478 -1312.132)" fill="#231f20"/>
      </g>
      <g id="Group_536" data-name="Group 536" transform="translate(132.214 49.194)">
        <path id="Path_1238" data-name="Path 1238" d="M2546.475,1311.855a.706.706,0,0,0-.313-.949c-4.837-2.443-8.246-2.377-12.553.24a.709.709,0,0,0-.24.972.7.7,0,0,0,.971.237c3.924-2.377,6.746-2.426,11.184-.186a.706.706,0,0,0,.951-.313Z" transform="translate(-2533.267 -1309.127)" fill="#231f20"/>
      </g>
      <circle id="Ellipse_131" data-name="Ellipse 131" cx="2.568" cy="2.568" r="2.568" transform="translate(97.862 60.178)" fill="#231f20"/>
      <circle id="Ellipse_132" data-name="Ellipse 132" cx="2.64" cy="2.64" r="2.64" transform="translate(136.532 53.56)" fill="#231f20"/>
      <path id="Path_1239" data-name="Path 1239" d="M2564.929,1284.026c-44.117-1.606-61.642,20.1-58.937,41.356a16.93,16.93,0,0,0,1.986,14.027s15.176-8.323,20.839-21.037c.588-1.513,23.2,13.552,54.039,15.985.028,12.035-1.877,29.9-6.531,36.746-7.214,10.609,12.365,11.524,23.819,8.045S2621.32,1286.078,2564.929,1284.026Z" transform="translate(-2425.819 -1282.254)" fill="#55312f"/>
      <path id="Path_1240" data-name="Path 1240" d="M2544.118,1313.47l8.094-3.558c3.356-1.473,7.327,1.128,6.895,4.769a5.085,5.085,0,0,1-.124.666l-1.107,4.352a12.54,12.54,0,0,1-12.775,9.434l-1.554-.077Z" transform="translate(-2391.942 -1259.608)" fill="#fac896"/>
      <path id="Path_1241" data-name="Path 1241" d="M2549.819,1341.821c1.983,1.394,17.5,11.422,39.672.69a.931.931,0,0,0,.51-1.005c-.141-.713-.285-1.867-.381-2.711a.912.912,0,0,1,.953-1.017c7.528.37,52.433,2.848,58.765,9.715,1.259.583-.943,45.571-1.886,48.7-.922,3.06-130.032,5.525-152.62,18.541a.9.9,0,0,1-1.36-.751c-.3-8.355-2.686-45.938-2.992-50.743a.877.877,0,0,1,.385-.8c3.778-2.584,32.487-21.591,58.449-20.789A.913.913,0,0,1,2549.819,1341.821Z" transform="translate(-2438.979 -1234.537)" fill="#fdbd28"/>
      <path id="Path_1242" data-name="Path 1242" d="M2483.648,1459.15s39.753-9.928,57.706-10.426-45-15.825-50.19-7.572A68.536,68.536,0,0,0,2483.648,1459.15Z" transform="translate(-2445.033 -1145.069)" fill="#f39c55"/>
      <path id="Path_1243" data-name="Path 1243" d="M2528.573,1448.657s63.057,2.4,65.656.751c0,0-3.059-5.342-2.588-10.216S2528.573,1448.657,2528.573,1448.657Z" transform="translate(-2405.214 -1145.544)" fill="#f39c55"/>
      <ellipse id="Ellipse_133" data-name="Ellipse 133" cx="74.451" cy="27.487" rx="74.451" ry="27.487" transform="translate(90.223 244.724)" fill="#2355f5"/>
      <path id="Path_1244" data-name="Path 1244" d="M2463.822,1445.909s-4.682,25.143,57.355,29.254,147.617,42.256,149.505,6.867c1.88-35.209-87.469-57.938-87.469-57.938S2515.185,1393.906,2463.822,1445.909Z" transform="translate(-2462.678 -1165.755)" fill="#cc0908"/>
      <ellipse id="Ellipse_134" data-name="Ellipse 134" cx="28.653" cy="29.866" rx="28.653" ry="29.866" transform="translate(38.522 261.6)" fill="#fac896"/>
      <path id="Path_1245" data-name="Path 1245" d="M2498.376,1435.147s-17.794,76.91-30.308,100.23l35.637,11.892s36.672-53.014,49.355-97.51Z" transform="translate(-2458.842 -1148.234)" fill="#fac896"/>
      <circle id="Ellipse_135" data-name="Ellipse 135" cx="29.866" cy="29.866" r="29.866" transform="translate(118.457 284.745)" fill="#fac896"/>
      <path id="Path_1246" data-name="Path 1246" d="M2584.942,1447.752s12.614,72.543,24.024,95.1l-28.3,21.261s-43.68-60.026-53.78-102.936Z" transform="translate(-2406.709 -1137.061)" fill="#fac896"/>
      <path id="Path_1247" data-name="Path 1247" d="M2540.237,1466.508,2552,1448.742c8.865-13.386,4.181-32.085-9.754-38.948h0a23.126,23.126,0,0,0-24.155,2.2c-13.621,10.073-33.66,29.455-34.49,56.728Z" transform="translate(-2445.077 -1172.848)" fill="#fac896"/>
      <path id="Path_1248" data-name="Path 1248" d="M2526.2,1477.012s-6.382-27.424,19.659-56.845c10.352-11.7,89.976,3.758,40.474,58.92Z" transform="translate(-2407.93 -1164.758)" fill="#fac896"/>
      <path id="Path_1249" data-name="Path 1249" d="M2464.535,1521.84s-4.073-39.753,1.892-49.739,17.172-21.423,27.1,2.2,16.443,44,14.832,50.085c-1.382,5.217-26.435,22.142-38.842,7.57A25.9,25.9,0,0,1,2464.535,1521.84Z" transform="translate(-2463.177 -1125.878)" fill="#f97700"/>
      <path id="Path_1250" data-name="Path 1250" d="M2610.576,1512.779c-9.521-9.422-21.987-15.489-21.987-15.489s-20.919.992-26.724,19.314c0,0-15.511,39.265-14.569,47.125s6.536,10.286,14.569,4.086l.036-.032a74.087,74.087,0,0,0,10.23-8.191C2596.806,1536.732,2620.1,1522.2,2610.576,1512.779Z" transform="translate(-2388.655 -1093.153)" fill="#f97700"/>
      <path id="Path_1251" data-name="Path 1251" d="M2537.856,1426.394c-7.8,12.439-11.175,23.858-12.347,33.286a115.806,115.806,0,0,0,25.38,5.555c7.61.783,10.015-.885,16.215.562,8.675,2.026,13.927,6.8,19.016,11.722C2625.356,1415.361,2546.137,1413.186,2537.856,1426.394Z" transform="translate(-2407.931 -1161.78)" fill="#f39c55"/>
      <path id="Path_1252" data-name="Path 1252" d="M2541.041,1409.97h0a23.506,23.506,0,0,0-24.312,2.733c-12.335,9.455-29.884,26.756-33.13,50.4,4.629-7.07,9.047-6.817,13.2-7.57,6.893-1.249,10.341.513,28.439,4.768,6.378,1.5,9.756,5.373,15,5.854l11.406-17.462C2560.315,1435.111,2555.226,1416.521,2541.041,1409.97Z" transform="translate(-2445.077 -1172.494)" fill="#f39c55"/>
      <path id="Path_1253" data-name="Path 1253" d="M2550.994,1338.32l15.973,60.038,5.548-.388-8.092-58.377Z" transform="translate(-2385.341 -1234.057)" fill="#f97700"/>
      <path id="Path_1254" data-name="Path 1254" d="M2564.533,1341.6l-.313,34.288a2.833,2.833,0,0,0,3.143,2.814l52.457-1.247a2.86,2.86,0,0,0,2.966-2.53l-.745-36.657,13.454,1.017s14.681,68.373,33.575,108.539,2.933,104.291,1.258,106.013-35.239-23.591-82.161-28.344-79.11-11.554-96.86-15.768-27.522,4.536-27.522,4.536,23.523-21.414,65.494-53.546c8.96-6.829,20.143-116.411,20.143-116.411l10.926-2.116A37.056,37.056,0,0,1,2564.533,1341.6Z" transform="translate(-2462.64 -1234.105)" fill="#e52822"/>
      <path id="Path_1255" data-name="Path 1255" d="M2551.412,1363.83a1.289,1.289,0,0,1-1.815,0l-2.7-2.7a1.284,1.284,0,0,1,1.816-1.815l2.7,2.7A1.287,1.287,0,0,1,2551.412,1363.83Zm7.866,148.907-2.7,2.7a1.283,1.283,0,0,0,1.815,1.814l2.7-2.7a1.284,1.284,0,0,0-1.814-1.817Zm-7.866-63.649-2.7-2.7a1.284,1.284,0,0,0-1.816,1.815l2.7,2.7a1.284,1.284,0,0,0,1.815-1.817Zm0,43.537-2.7-2.7a1.284,1.284,0,0,0-1.816,1.815l2.7,2.7a1.284,1.284,0,0,0,1.815-1.817Zm9.681,8.709a1.285,1.285,0,0,0-1.814,0l-2.7,2.7a1.283,1.283,0,1,0,1.815,1.815l2.7-2.7A1.285,1.285,0,0,0,2561.093,1501.334ZM2550.422,1343.1a1.287,1.287,0,0,0,0-1.815l-.283-.283c-1.04.163-2.116.353-2.2.372l-.883.171,1.554,1.555A1.286,1.286,0,0,0,2550.422,1343.1Zm-1.815,174.148a1.283,1.283,0,0,0,1.815-1.814l-2.7-2.7a1.285,1.285,0,0,0-1.817,1.817Zm2.8-111.7-2.7-2.7a1.284,1.284,0,0,0-1.816,1.814l2.7,2.7a1.284,1.284,0,0,0,1.815-1.817Zm-5.5,21.929,2.7,2.7a1.283,1.283,0,0,0,1.815-1.814l-2.7-2.7a1.285,1.285,0,0,0-1.817,1.816Zm0,75.67,2.7,2.7a1.283,1.283,0,0,0,1.815-1.815l-2.7-2.7a1.284,1.284,0,1,0-1.817,1.815Zm0-64.266,2.7,2.7a1.283,1.283,0,1,0,1.815-1.815l-2.7-2.7a1.284,1.284,0,0,0-1.817,1.815Zm0-43.537,2.7,2.7a1.283,1.283,0,0,0,1.815-1.815l-2.7-2.7a1.284,1.284,0,0,0-1.817,1.815Zm0,20.729,2.7,2.7a1.283,1.283,0,0,0,1.815-1.815l-2.7-2.7a1.284,1.284,0,0,0-1.817,1.815Zm0,66.345,2.7,2.7a1.283,1.283,0,1,0,1.815-1.815l-2.7-2.7a1.284,1.284,0,0,0-1.817,1.815Zm0-11.4,2.7,2.7a1.283,1.283,0,0,0,1.815-1.815l-2.7-2.7a1.285,1.285,0,0,0-1.817,1.817Zm0-11.4,2.7,2.7a1.283,1.283,0,0,0,1.815-1.815l-2.7-2.7a1.284,1.284,0,0,0-1.817,1.815Zm15.183,9.588a1.289,1.289,0,0,0-1.814,0l-2.7,2.7a1.283,1.283,0,0,0,1.815,1.815l2.7-2.7A1.287,1.287,0,0,0,2561.093,1469.2Zm-5.5,25.242a1.289,1.289,0,0,0,1.815,0l2.7-2.7a1.283,1.283,0,0,0-1.815-1.815l-2.7,2.7A1.288,1.288,0,0,0,2555.592,1494.441Zm38.846-87.074,2.7-2.7a1.283,1.283,0,0,0-1.815-1.814l-2.7,2.7a1.284,1.284,0,0,0,1.816,1.817Zm-1.816,87.074a1.291,1.291,0,0,0,1.816,0l2.7-2.7a1.283,1.283,0,0,0-1.815-1.815l-2.7,2.7A1.287,1.287,0,0,0,2592.622,1494.441Zm-33.344-112.315-2.7,2.7a1.283,1.283,0,1,0,1.815,1.815l2.7-2.7a1.284,1.284,0,1,0-1.814-1.817Zm33.344,68.778a1.291,1.291,0,0,0,1.816,0l2.7-2.7a1.283,1.283,0,0,0-1.815-1.815l-2.7,2.7A1.287,1.287,0,0,0,2592.622,1450.9Zm5.5,18.3a1.289,1.289,0,0,0-1.815,0l-2.7,2.7a1.283,1.283,0,0,0,1.814,1.815l2.7-2.7A1.291,1.291,0,0,0,2598.124,1469.2Zm-1.815,43.537-2.7,2.7a1.283,1.283,0,0,0,1.814,1.814l2.7-2.7a1.284,1.284,0,1,0-1.815-1.817Zm1.815-11.4a1.286,1.286,0,0,0-1.815,0l-2.7,2.7a1.283,1.283,0,0,0,1.814,1.815l2.7-2.7A1.289,1.289,0,0,0,2598.124,1501.334Zm-37.031-107.8a1.286,1.286,0,0,0-1.814,0l-2.7,2.7a1.283,1.283,0,1,0,1.815,1.815l2.7-2.7A1.285,1.285,0,0,0,2561.093,1393.53Zm0,43.537a1.288,1.288,0,0,0-1.814,0l-2.7,2.7a1.283,1.283,0,0,0,1.815,1.815l2.7-2.7A1.285,1.285,0,0,0,2561.093,1437.068Zm0,20.729a1.285,1.285,0,0,0-1.814,0l-2.7,2.7a1.283,1.283,0,1,0,1.815,1.815l2.7-2.7A1.285,1.285,0,0,0,2561.093,1457.8Zm-5.5-6.893a1.289,1.289,0,0,0,1.815,0l2.7-2.7a1.283,1.283,0,0,0-1.815-1.815l-2.7,2.7A1.288,1.288,0,0,0,2555.592,1450.9Zm-9.683-66.962,2.7,2.7a1.283,1.283,0,0,0,1.815-1.815l-2.7-2.7a1.285,1.285,0,0,0-1.817,1.817Zm15.183,96.662a1.289,1.289,0,0,0-1.814,0l-2.7,2.7a1.283,1.283,0,0,0,1.815,1.815l2.7-2.7A1.285,1.285,0,0,0,2561.093,1480.6Zm0-54.942a1.289,1.289,0,0,0-1.814,0l-2.7,2.7a1.283,1.283,0,0,0,1.815,1.814l2.7-2.7A1.287,1.287,0,0,0,2561.093,1425.663Zm0-11.4a1.285,1.285,0,0,0-1.814,0l-2.7,2.7a1.283,1.283,0,0,0,1.815,1.815l2.7-2.7A1.285,1.285,0,0,0,2561.093,1414.26Zm37.031,66.345a1.289,1.289,0,0,0-1.815,0l-2.7,2.7a1.283,1.283,0,0,0,1.814,1.815l2.7-2.7A1.289,1.289,0,0,0,2598.124,1480.6Zm-68.458-76.98-.094.662A1.267,1.267,0,0,0,2529.667,1403.625Zm53.274,120.517a1.289,1.289,0,0,0-.268,1.411q2.1.308,4.16.666l-2.077-2.077A1.289,1.289,0,0,0,2582.941,1524.142Zm78.487-61.835a1.255,1.255,0,0,0,.672.33c-.185-.747-.392-1.483-.594-2.222l-.077.077A1.286,1.286,0,0,0,2661.428,1462.307Zm-131.121,39.027a1.285,1.285,0,0,0-1.815,0l-2.7,2.7a1.283,1.283,0,0,0,1.814,1.815l2.7-2.7A1.285,1.285,0,0,0,2530.307,1501.334Zm-5.5-6.893a1.292,1.292,0,0,0,1.817,0l2.7-2.7a1.283,1.283,0,0,0-1.815-1.815l-2.7,2.7A1.291,1.291,0,0,0,2524.8,1494.441Zm1.817-43.537,2.7-2.7a1.283,1.283,0,0,0-1.815-1.815l-2.7,2.7a1.285,1.285,0,0,0,1.817,1.817Zm133.816,85.258a1.288,1.288,0,0,0,0,1.816,1.272,1.272,0,0,0,1.262.306c.251-1.306.5-2.694.749-4.133Zm3.686-23.425-2.7,2.7a1.283,1.283,0,0,0,1.815,1.814l1.644-1.645q.147-1.59.27-3.216A1.262,1.262,0,0,0,2664.124,1512.737Zm-115.517-158.231a1.283,1.283,0,0,0,1.815-1.815l-2.7-2.7a1.284,1.284,0,1,0-1.817,1.815Zm-20.115,158.231-2.7,2.7a1.283,1.283,0,0,0,1.814,1.814l2.7-2.7a1.284,1.284,0,0,0-1.815-1.817Zm135.632-11.4-2.7,2.7a1.283,1.283,0,0,0,1.815,1.815l2.424-2.424c.026-.737.051-1.477.07-2.222A1.27,1.27,0,0,0,2664.124,1501.334Zm-1.872-6.893,2.7-2.7a1.284,1.284,0,0,0-1.817-1.815l-2.7,2.7a1.284,1.284,0,1,0,1.814,1.817Zm1.872-13.836-2.7,2.7a1.283,1.283,0,0,0,1.815,1.815l2.046-2.047c-.073-.945-.143-1.89-.234-2.835A1.281,1.281,0,0,0,2664.124,1480.6Zm-2.7-8.707a1.283,1.283,0,0,0,1.815,1.815l.875-.875q-.241-1.562-.52-3.109Zm0,54.942a1.283,1.283,0,0,0,1.815,1.815l.1-.1c.2-1.362.393-2.769.579-4.209Zm-182.342-36.91a1.285,1.285,0,0,0,0,1.815l2.7,2.7a1.284,1.284,0,0,0,1.815-1.817l-2.7-2.7A1.285,1.285,0,0,0,2479.086,1489.929Zm13.2,1.815a1.284,1.284,0,0,0-1.817-1.815l-2.7,2.7a1.284,1.284,0,0,0,1.814,1.817Zm.99-11.139a1.291,1.291,0,0,0-1.816,0l-2.7,2.7a1.283,1.283,0,1,0,1.815,1.815l2.7-2.7A1.289,1.289,0,0,0,2493.278,1480.6Zm-2.7,25.239,2.7-2.7a1.284,1.284,0,0,0-1.816-1.815l-2.7,2.7a1.283,1.283,0,0,0,1.815,1.815Zm-9.791,0a1.284,1.284,0,0,0,1.817-1.815l-2.7-2.7a1.283,1.283,0,1,0-1.815,1.815Zm65.119-133.307,2.7,2.7a1.283,1.283,0,0,0,1.815-1.815l-2.7-2.7a1.284,1.284,0,0,0-1.817,1.815Zm-26.273,142.9-2.7-2.7a1.284,1.284,0,1,0-1.814,1.817l2.2,2.2c.775.134,1.579.27,2.371.4A1.274,1.274,0,0,0,2519.636,1515.435Zm-4.512-12.286,2.7,2.7a1.283,1.283,0,0,0,1.815-1.815l-2.7-2.7a1.283,1.283,0,0,0-1.814,1.815Zm15.183-45.352a1.285,1.285,0,0,0-1.815,0l-2.7,2.7a1.283,1.283,0,0,0,1.814,1.815l2.7-2.7A1.285,1.285,0,0,0,2530.307,1457.8Zm0-20.729a1.289,1.289,0,0,0-1.815,0l-2.7,2.7a1.283,1.283,0,0,0,1.814,1.815l2.7-2.7A1.285,1.285,0,0,0,2530.307,1437.068Zm-9.681,55.557-2.7-2.7a1.283,1.283,0,0,0-1.814,1.815l2.7,2.7a1.284,1.284,0,0,0,1.815-1.817Zm9.681-23.425a1.289,1.289,0,0,0-1.815,0l-2.7,2.7a1.283,1.283,0,0,0,1.814,1.815l2.7-2.7A1.287,1.287,0,0,0,2530.307,1469.2Zm-15.183,13.22,2.7,2.7a1.283,1.283,0,0,0,1.815-1.815l-2.7-2.7a1.283,1.283,0,1,0-1.814,1.815Zm15.183-1.815a1.289,1.289,0,0,0-1.815,0l-2.7,2.7a1.283,1.283,0,0,0,1.814,1.815l2.7-2.7A1.285,1.285,0,0,0,2530.307,1480.6Zm-12.486-6.893a1.283,1.283,0,1,0,1.815-1.815l-2.7-2.7a1.284,1.284,0,0,0-1.814,1.817Zm37.771-66.345a1.289,1.289,0,0,0,1.815,0l2.7-2.7a1.283,1.283,0,0,0-1.815-1.814l-2.7,2.7A1.288,1.288,0,0,0,2555.592,1407.367Zm73.317-36.644a1.285,1.285,0,0,0-1.815,0l-2.7,2.7a1.283,1.283,0,0,0,1.814,1.815l2.7-2.7A1.285,1.285,0,0,0,2628.909,1370.723Zm-4.512-16.217a1.289,1.289,0,0,0,1.814,0l.479-.479q-.371-1.526-.706-2.924l-1.588,1.588A1.288,1.288,0,0,0,2624.4,1354.506Zm3.522,4.812a1.286,1.286,0,0,0-1.815,0l-2.7,2.7a1.285,1.285,0,0,0,1.817,1.817l2.7-2.7a1.258,1.258,0,0,0,.343-.744c-.076-.3-.151-.6-.225-.892A1.214,1.214,0,0,0,2627.919,1359.318Zm.99,34.213a1.286,1.286,0,0,0-1.815,0l-2.7,2.7a1.283,1.283,0,0,0,1.814,1.815l2.7-2.7A1.286,1.286,0,0,0,2628.909,1393.53Zm0-11.4a1.289,1.289,0,0,0-1.815,0l-2.7,2.7a1.283,1.283,0,0,0,1.814,1.815l2.7-2.7A1.288,1.288,0,0,0,2628.909,1382.126Zm-10.671,121.9-2.7-2.7a1.283,1.283,0,0,0-1.814,1.815l2.7,2.7a1.283,1.283,0,1,0,1.814-1.815Zm0,11.405-2.7-2.7a1.284,1.284,0,1,0-1.814,1.817l2.7,2.7a1.283,1.283,0,0,0,1.814-1.814Zm-2.7,8.707a1.283,1.283,0,1,0-1.814,1.815l2.7,2.7a1.283,1.283,0,1,0,1.814-1.815Zm13.369-54.942a1.289,1.289,0,0,0-1.815,0l-2.7,2.7a1.283,1.283,0,0,0,1.814,1.815l2.7-2.7A1.287,1.287,0,0,0,2628.909,1469.2Zm0,11.405a1.289,1.289,0,0,0-1.815,0l-2.7,2.7a1.283,1.283,0,0,0,1.814,1.815l2.7-2.7A1.285,1.285,0,0,0,2628.909,1480.6Zm0,20.729a1.285,1.285,0,0,0-1.815,0l-2.7,2.7a1.283,1.283,0,0,0,1.814,1.815l2.7-2.7A1.285,1.285,0,0,0,2628.909,1501.334Zm-15.183-149.526,2.7,2.7a1.283,1.283,0,0,0,1.814-1.815l-2.7-2.7a1.283,1.283,0,0,0-1.814,1.815Zm13.368,172.334-2.7,2.7a1.283,1.283,0,0,0,1.814,1.815l2.7-2.7a1.283,1.283,0,0,0-1.815-1.815Zm1.815-98.479a1.289,1.289,0,0,0-1.815,0l-2.7,2.7a1.283,1.283,0,0,0,1.814,1.814l2.7-2.7A1.287,1.287,0,0,0,2628.909,1425.663Zm0-11.4a1.285,1.285,0,0,0-1.815,0l-2.7,2.7a1.283,1.283,0,0,0,1.814,1.815l2.7-2.7A1.285,1.285,0,0,0,2628.909,1414.26Zm0,22.808a1.289,1.289,0,0,0-1.815,0l-2.7,2.7a1.283,1.283,0,0,0,1.814,1.815l2.7-2.7A1.285,1.285,0,0,0,2628.909,1437.068Zm0,20.729a1.285,1.285,0,0,0-1.815,0l-2.7,2.7a1.283,1.283,0,0,0,1.814,1.815l2.7-2.7A1.285,1.285,0,0,0,2628.909,1457.8Zm-9.68,34.828-2.7-2.7a1.283,1.283,0,0,0-1.814,1.815l2.7,2.7a1.284,1.284,0,0,0,1.815-1.817Zm9.68,20.112a1.289,1.289,0,0,0-1.815,0l-2.7,2.7a1.283,1.283,0,0,0,1.814,1.814l2.7-2.7A1.288,1.288,0,0,0,2628.909,1512.737Zm-15.183-41.721,2.7,2.7a1.283,1.283,0,1,0,1.814-1.815l-2.7-2.7a1.284,1.284,0,1,0-1.814,1.817Zm5.5-65.466-2.7-2.7a1.283,1.283,0,0,0-1.814,1.814l2.7,2.7a1.284,1.284,0,0,0,1.815-1.817Zm-5.5,76.869,2.7,2.7a1.283,1.283,0,0,0,1.814-1.815l-2.7-2.7a1.283,1.283,0,1,0-1.814,1.815Zm5.5-33.332-2.7-2.7a1.283,1.283,0,0,0-1.814,1.815l2.7,2.7a1.284,1.284,0,0,0,1.815-1.817Zm8.69,84.379a1.286,1.286,0,0,0-1.815,0l-2.7,2.7a1.256,1.256,0,0,0-.3.505c.823.328,1.638.658,2.434.989l2.375-2.375A1.287,1.287,0,0,0,2627.919,1533.466Zm-8.69-171.453-2.7-2.7a1.283,1.283,0,0,0-1.814,1.815l2.7,2.7a1.284,1.284,0,0,0,1.815-1.817Zm-4.512,171.453c-.014.013-.017.03-.029.043q1.494.523,2.943,1.056l-1.1-1.1A1.285,1.285,0,0,0,2614.717,1533.466Zm-.99-160.929,2.7,2.7a1.283,1.283,0,0,0,1.814-1.815l-2.7-2.7a1.283,1.283,0,1,0-1.814,1.815Zm0,11.405,2.7,2.7a1.283,1.283,0,1,0,1.814-1.815l-2.7-2.7a1.284,1.284,0,0,0-1.814,1.817Zm2.7-40.842a1.283,1.283,0,0,0,1.814-1.815l-2.7-2.7a1.283,1.283,0,0,0-1.814,1.814Zm-2.7,52.245,2.7,2.7a1.283,1.283,0,1,0,1.814-1.815l-2.7-2.7a1.283,1.283,0,0,0-1.814,1.815Zm0,64.266,2.7,2.7a1.283,1.283,0,1,0,1.814-1.815l-2.7-2.7a1.283,1.283,0,0,0-1.814,1.815Zm0-20.729,2.7,2.7a1.283,1.283,0,0,0,1.814-1.815l-2.7-2.7a1.283,1.283,0,1,0-1.814,1.815Zm-15.6,18.914a1.286,1.286,0,0,0-1.815,0l-2.7,2.7a1.283,1.283,0,0,0,1.814,1.815l2.7-2.7A1.289,1.289,0,0,0,2598.124,1457.8Zm15.6-41.722,2.7,2.7a1.283,1.283,0,0,0,1.814-1.815l-2.7-2.7a1.283,1.283,0,0,0-1.814,1.815Zm0,11.4,2.7,2.7a1.283,1.283,0,0,0,1.814-1.814l-2.7-2.7a1.284,1.284,0,1,0-1.814,1.816Zm-30.786,11.4,2.7,2.7a1.283,1.283,0,0,0,1.815-1.815l-2.7-2.7a1.283,1.283,0,1,0-1.814,1.815Zm0-11.4,2.7,2.7a1.283,1.283,0,0,0,1.815-1.814l-2.7-2.7a1.284,1.284,0,0,0-1.814,1.816Zm0-32.134,2.7,2.7a1.283,1.283,0,0,0,1.815-1.815l-2.7-2.7a1.283,1.283,0,0,0-1.814,1.815Zm2.7-8.708a1.283,1.283,0,0,0,1.815-1.815l-2.7-2.7a1.284,1.284,0,0,0-1.814,1.817Zm-2.7,29.437,2.7,2.7a1.283,1.283,0,0,0,1.815-1.815l-2.7-2.7a1.283,1.283,0,0,0-1.814,1.815Zm0,43.537,2.7,2.7a1.283,1.283,0,0,0,1.815-1.815l-2.7-2.7a1.283,1.283,0,0,0-1.814,1.815Zm0,22.808,2.7,2.7a1.283,1.283,0,0,0,1.815-1.815l-2.7-2.7a1.283,1.283,0,1,0-1.814,1.815Zm0-11.4,2.7,2.7a1.283,1.283,0,1,0,1.815-1.815l-2.7-2.7a1.284,1.284,0,0,0-1.814,1.817Zm4.512,33.013-2.7-2.7a1.283,1.283,0,0,0-1.814,1.815l2.7,2.7a1.283,1.283,0,0,0,1.815-1.815Zm10.671-89.77a1.285,1.285,0,0,0-1.815,0l-2.7,2.7a1.283,1.283,0,0,0,1.814,1.815l2.7-2.7A1.289,1.289,0,0,0,2598.124,1414.26Zm0,11.4a1.289,1.289,0,0,0-1.815,0l-2.7,2.7a1.283,1.283,0,0,0,1.814,1.814l2.7-2.7A1.291,1.291,0,0,0,2598.124,1425.663Zm0,11.405a1.289,1.289,0,0,0-1.815,0l-2.7,2.7a1.283,1.283,0,0,0,1.814,1.815l2.7-2.7A1.289,1.289,0,0,0,2598.124,1437.068Zm-13.369,75.669a1.284,1.284,0,1,0-1.814,1.817l2.7,2.7a1.283,1.283,0,0,0,1.815-1.814Zm3.688-20.112-2.7-2.7a1.283,1.283,0,0,0-1.815,1.815l2.7,2.7a1.284,1.284,0,0,0,1.816-1.817Zm9.681-99.094a1.286,1.286,0,0,0-1.815,0l-2.7,2.7a1.283,1.283,0,0,0,1.814,1.815l2.7-2.7A1.29,1.29,0,0,0,2598.124,1393.53Zm0-11.4a1.289,1.289,0,0,0-1.815,0l-2.7,2.7a1.283,1.283,0,0,0,1.814,1.815l2.7-2.7A1.292,1.292,0,0,0,2598.124,1382.126Zm-9.681,66.962-2.7-2.7a1.283,1.283,0,1,0-1.815,1.815l2.7,2.7a1.284,1.284,0,0,0,1.816-1.817Zm67.814,43.537-2.7-2.7a1.283,1.283,0,0,0-1.814,1.815l2.7,2.7a1.284,1.284,0,0,0,1.814-1.817Zm-32.851,1.817a1.292,1.292,0,0,0,1.817,0l2.7-2.7a1.283,1.283,0,0,0-1.815-1.815l-2.7,2.7A1.291,1.291,0,0,0,2623.407,1494.441Zm32.851-45.354-2.7-2.7a1.283,1.283,0,0,0-1.814,1.815l2.7,2.7a1.284,1.284,0,0,0,1.814-1.817Zm-5.5,97.6,2.7,2.7a1.284,1.284,0,0,0,1.817-1.815l-2.7-2.7a1.283,1.283,0,1,0-1.815,1.815Zm-27.35-95.782a1.292,1.292,0,0,0,1.817,0l2.7-2.7a1.283,1.283,0,0,0-1.815-1.815l-2.7,2.7A1.291,1.291,0,0,0,2623.407,1450.9Zm1.817-43.537,2.7-2.7a1.283,1.283,0,0,0-1.815-1.814l-2.7,2.7a1.285,1.285,0,0,0,1.817,1.817Zm25.533,29.7a1.285,1.285,0,0,0,0,1.815l2.7,2.7a1.273,1.273,0,0,0,.919.372q-1.1-2.513-2.179-5.135A1.278,1.278,0,0,0,2650.757,1437.068Zm0,88.889,2.7,2.7a1.284,1.284,0,0,0,1.817-1.815l-2.7-2.7a1.283,1.283,0,0,0-1.815,1.815Zm5.5,10.205-2.7-2.7a1.283,1.283,0,1,0-1.814,1.815l2.7,2.7a1.284,1.284,0,0,0,1.814-1.816Zm-58.133-12.02a1.289,1.289,0,0,0-1.815,0l-2.7,2.7a1.248,1.248,0,0,0-.321.628q1.366.294,2.714.609l2.119-2.12A1.289,1.289,0,0,0,2598.124,1524.142Zm52.633-53.126,2.7,2.7a1.284,1.284,0,0,0,1.817-1.815l-2.7-2.7a1.284,1.284,0,0,0-1.815,1.817Zm-62.314-65.466-2.7-2.7a1.283,1.283,0,0,0-1.815,1.814l2.7,2.7a1.284,1.284,0,1,0,1.816-1.817Zm65.009,56.757a1.284,1.284,0,0,0,1.817-1.815l-2.7-2.7a1.283,1.283,0,0,0-1.815,1.815Zm-2.7,40.841,2.7,2.7a1.284,1.284,0,0,0,1.817-1.815l-2.7-2.7a1.283,1.283,0,1,0-1.815,1.815Zm0-20.729,2.7,2.7a1.284,1.284,0,0,0,1.817-1.815l-2.7-2.7a1.283,1.283,0,0,0-1.815,1.815Zm0,32.134,2.7,2.7a1.284,1.284,0,1,0,1.817-1.814l-2.7-2.7a1.284,1.284,0,0,0-1.815,1.817Z" transform="translate(-2450.288 -1234.15)" fill="#ed5858"/>
      <path id="Path_1256" data-name="Path 1256" d="M2519.407,1373.085s13.789,53.4,51.807,55.474c11.135.662-2.165,8.207-30.884,6.793s-29.161,3.776-20.923,7.783-29.967,0-29.967,0,14.323-6.37,20.049-18.788C2513.308,1416.062,2519.407,1373.085,2519.407,1373.085Z" transform="translate(-2439.899 -1203.243)" fill="#cc0908" opacity="0.8"/>
      <path id="Path_1257" data-name="Path 1257" d="M2516.462,1342.287s8.189,14.84,30.6,13.37,28.256-14.852,28.282-16.826-8.626-.921-8.626-.921l.283,4.488s-23.2,11.982-40.723-.611Z" transform="translate(-2415.949 -1234.669)" fill="#f97700"/>
    </g>
    <path id="rope" d="M2214.009,1640.61a48.706,48.706,0,0,1,5.122-4.8c33.135-136.138,21.963-268.551,4.68-391.693l-3.735.524C2237.545,1369.126,2248.716,1503.085,2214.009,1640.61Zm283.408,0a48.6,48.6,0,0,1,5.123-4.8c33.134-136.138,21.961-268.551,4.68-391.693l-3.737.524C2520.953,1369.126,2532.124,1503.085,2497.417,1640.61Zm-25.4,56.5,46.486-56.593a17.285,17.285,0,0,0,3.922-11.533l-.634-19.59-49.145,60.678Zm446.54-367.675c-22.572-56.532-47.046-81.568-48.077-82.607l-2.677,2.66c.248.247,24.963,25.524,47.252,81.347,20.628,51.665,43.241,140.652,33.82,271.194l3.766.27C2962.106,1471.04,2939.328,1381.464,2918.553,1329.431ZM2692.1,1584.291a7.653,7.653,0,0,1,1.255-1.863,451.127,451.127,0,0,0,20.252-160.973c-3.867-66.232-22.659-126.518-54.342-174.342l-3.145,2.083c59.177,89.324,71.01,225,30.633,341.2A38.181,38.181,0,0,1,2692.1,1584.291Zm243.268,57.483,22.54-37.086a39.474,39.474,0,0,0,5.74-20.5v-14.1l-28.28,47.159Z" transform="translate(180.822 166.856)" fill="#192684"/>
    <path id="Path_1258" data-name="Path 1258" d="M2367.506,1382.143s-.323-30.561,11.2-27.982,27.663,30.144,4.542,49.66C2383.246,1403.821,2366.842,1401.093,2367.506,1382.143Z" transform="translate(316.858 264.255)" fill="#fac896"/>
    <path id="Path_1259" data-name="Path 1259" d="M2241.585,1378.531s9.439-29.067-2.326-30.047-35.4,20.5-19.172,46.035C2220.086,1394.518,2236.556,1396.815,2241.585,1378.531Z" transform="translate(181.322 259.331)" fill="#fac896"/>
    <path id="Path_1260" data-name="Path 1260" d="M2591.461,1341.528s-.325-30.559,11.2-27.98,27.664,30.144,4.545,49.661C2607.2,1363.208,2590.8,1360.48,2591.461,1341.528Z" transform="translate(515.361 228.257)" fill="#fac896"/>
    <path id="Path_1261" data-name="Path 1261" d="M2492.566,1348.651s9.439-29.067-2.324-30.048-35.407,20.5-19.175,46.035C2471.067,1364.638,2487.537,1366.935,2492.566,1348.651Z" transform="translate(403.781 232.847)" fill="#fac896"/>
  </g>
</svg>
